<svg preserveAspectRatio="none" viewBox="0 0 24 24" id="img" fill="currentColor" xmlns="http://www.w3.org/2000/svg">
<g clip-path="url(#clip0_1471_502)">
<path d="M9.66667 11.2168C10.9917 10.5834 11.6833 9.6251 11.6833 8.13343C11.6833 5.19176 9.49167 4.4751 6.9625 4.4751H0V19.2418H7.15833C9.84167 19.2418 12.3625 17.9543 12.3625 14.9543C12.3625 13.1001 11.4833 11.7293 9.66667 11.2168ZM3.24583 6.99593H6.29167C7.4625 6.99593 8.51667 7.3251 8.51667 8.68343C8.51667 9.9376 7.69583 10.4418 6.5375 10.4418H3.24583V6.99593ZM6.71667 16.7334H3.24583V12.6668H6.78333C8.2125 12.6668 9.11667 13.2626 9.11667 14.7751C9.11667 16.2668 8.0375 16.7334 6.71667 16.7334ZM21.6542 6.70426H15.6667V5.2501H21.6542V6.70426ZM24 14.0501C24 10.8876 22.15 8.2501 18.7958 8.2501C15.5375 8.2501 13.325 10.7001 13.325 13.9084C13.325 17.2376 15.4208 19.5209 18.7958 19.5209C21.35 19.5209 23.0042 18.3709 23.8 15.9251H21.2083C20.9292 16.8376 19.7792 17.3209 18.8875 17.3209C17.1667 17.3209 16.2625 16.3126 16.2625 14.6001H23.975C23.9875 14.4251 24 14.2376 24 14.0501ZM16.2667 12.7501C16.3625 11.3459 17.2958 10.4668 18.7042 10.4668C20.1792 10.4668 20.9208 11.3334 21.0458 12.7501H16.2667Z"/>
</g>
<defs>
<clipPath id="clip0_1471_502">
<rect width="24" height="24" fill="white"/>
</clipPath>
</defs>
</svg>
