<svg preserveAspectRatio="none" viewBox="0 0 24 24" fill="currentColor" xmlns="http://www.w3.org/2000/svg">
<path fill-rule="evenodd" clip-rule="evenodd" d="M22.3044 6.04066C22.4801 6.34011 22.5647 6.69813 22.5647 7.09519V16.8918C22.5647 17.2824 22.4801 17.6274 22.3174 17.9268C22.1482 18.2393 21.8943 18.4931 21.5428 18.6949C20.4749 19.3105 19.406 19.9251 18.3369 20.5398L18.3363 20.5402C16.5904 21.544 14.844 22.5482 13.1001 23.5574C12.4007 23.9673 11.7181 23.9808 11.0212 23.6289C10.9614 23.5991 10.9014 23.5665 10.8413 23.5313C10.1558 23.1248 7.78921 21.7643 5.67301 20.5477L5.67231 20.5473L5.66961 20.5457C4.33063 19.776 3.09235 19.0641 2.44421 18.6884C2.09922 18.4865 1.83885 18.2262 1.66959 17.9202L1.67685 17.916C1.51791 17.6191 1.4353 17.2777 1.4353 16.8918V7.10171C1.4353 6.30756 1.76727 5.69567 2.45728 5.29861C3.25492 4.83435 4.95638 3.85555 6.63643 2.88906L6.63672 2.8889L6.63682 2.88884C8.46651 1.83627 10.2707 0.798357 10.8544 0.455622C11.6095 0.0129903 12.3385 -3.39299e-05 13.1001 0.4361C14.5058 1.24635 15.9132 2.0566 17.3206 2.86684L17.3211 2.86715C18.7289 3.67763 20.1366 4.48812 21.5428 5.29861C21.8813 5.49389 22.1351 5.74124 22.3044 6.04066ZM11.9935 15.4857C13.3019 15.4857 14.441 14.7632 15.0399 13.7021L18.0928 15.4662C16.882 17.5818 14.6038 19.0073 11.9935 19.0073C9.38973 19.0073 7.11145 17.5883 5.90071 15.4857C5.30834 14.4573 4.96988 13.2595 4.96988 11.9902C4.96988 8.11711 8.10738 4.97308 11.987 4.97308C14.5842 4.97308 16.8495 6.38562 18.0667 8.48162L15.0138 10.2392C14.4085 9.19765 13.2823 8.49465 11.9935 8.49465C10.0602 8.49465 8.49794 10.0569 8.49794 11.9902C8.49794 12.6216 8.6672 13.2074 8.96012 13.7217C9.55899 14.7762 10.6916 15.4857 11.9935 15.4857ZM18.2034 10.3303H18.8999V10.8966H19.7461V10.3303H20.4426V10.8966H21.009V11.5931H20.4426V12.4328H21.009V13.1293H20.4426V13.6957H19.7461V13.1293H18.8999V13.6957H18.2034V13.1293H17.6436V12.4328H18.2034V11.5931H17.6436V10.8966H18.2034V10.3303ZM18.8999 11.5931V12.4328H19.7461V11.5931H18.8999Z" fill="black"/>
</svg>
