<svg  preserveAspectRatio="none" viewBox="0 0 24 24" id="img" fill="currentColor" xmlns="http://www.w3.org/2000/svg">
<g clip-path="url(#clip0_1471_503)">
<path d="M12 0.375C5.58994 0.375 0.375 5.58994 0.375 12C0.375 18.4101 5.58994 23.625 12 23.625C18.4101 23.625 23.625 18.4101 23.625 12C23.625 5.58994 18.4101 0.375 12 0.375ZM19.6861 5.73591C21.069 7.42556 21.9065 9.57764 21.9284 11.9213C21.601 11.8521 18.3181 11.1862 15.0142 11.6017C14.7446 10.9435 14.4901 10.3645 14.1415 9.65105C17.8128 8.15213 19.4768 6.01908 19.6861 5.73591ZM18.5822 4.58766C18.4036 4.84205 16.9089 6.85106 13.3781 8.17448C11.751 5.18498 9.94758 2.72911 9.67313 2.36161C12.822 1.60256 16.1403 2.42114 18.5822 4.58766ZM7.77848 3.02906C8.04028 3.38808 9.81464 5.847 11.4599 8.77167C6.8152 10.0051 2.72428 9.98733 2.28019 9.98147C2.92406 6.90023 5.00053 4.33936 7.77848 3.02906ZM2.07047 12.0151C2.07047 11.9136 2.07248 11.8125 2.07553 11.7117C2.50997 11.7206 7.32178 11.7826 12.2805 10.2986C12.5648 10.8549 12.8363 11.4196 13.0855 11.9837C9.49495 12.9951 6.23269 15.8991 4.62314 18.6543C3.03722 16.894 2.07047 14.5655 2.07047 12.0151ZM5.90517 19.8486C6.94237 17.7283 9.75727 14.9913 13.7604 13.6256C15.1545 17.2483 15.731 20.2844 15.8787 21.1555C12.6859 22.5155 8.84672 22.1424 5.90517 19.8486ZM17.548 20.2465C17.4462 19.6425 16.9177 16.7357 15.619 13.1668C18.7305 12.6687 21.4643 13.4841 21.804 13.5913C21.3614 16.3541 19.7756 18.7402 17.548 20.2465Z"/>
</g>
<defs>
<clipPath id="clip0_1471_503">
<rect width="24" height="24" fill="white"/>
</clipPath>
</defs>
</svg>
