<svg preserveAspectRatio="none" viewBox="0 0 24 24" id="img" fill="currentColor" xmlns="http://www.w3.org/2000/svg">
<path d="M4.43311 4.49027C4.43311 2.01036 6.44347 0 8.9234 0H16.6282C19.1081 0 21.1184 2.01036 21.1184 4.49027C21.1184 6.06056 20.3124 7.44263 19.0914 8.24517C20.3124 9.04777 21.1184 10.4298 21.1184 12.0001C21.1184 14.48 19.1081 16.4904 16.6282 16.4904H16.5307C15.3681 16.4904 14.3086 16.0485 13.5112 15.3236V19.461C13.5112 21.9739 11.4483 24 8.94759 24C6.47386 24 4.43311 21.9958 4.43311 19.5097C4.43311 17.9395 5.2391 16.5575 6.45994 15.7549C5.2391 14.9523 4.43311 13.5703 4.43311 12.0001C4.43311 10.4298 5.23917 9.04777 6.4601 8.24517C5.23917 7.44263 4.43311 6.06056 4.43311 4.49027ZM12.0404 8.98064H8.9234C7.25579 8.98064 5.90394 10.3325 5.90394 12.0001C5.90394 13.6613 7.24536 15.0091 8.90409 15.0195C8.91051 15.0195 8.91693 15.0195 8.9234 15.0195H12.0404V8.98064ZM13.5112 12.0001C13.5112 13.6677 14.863 15.0195 16.5307 15.0195H16.6282C18.2958 15.0195 19.6476 13.6677 19.6476 12.0001C19.6476 10.3325 18.2958 8.98064 16.6282 8.98064H16.5307C14.863 8.98064 13.5112 10.3325 13.5112 12.0001ZM8.9234 16.4904C8.91693 16.4904 8.91051 16.4903 8.90409 16.4903C7.24536 16.5007 5.90394 17.8485 5.90394 19.5097C5.90394 21.1712 7.27385 22.5292 8.94759 22.5292C10.6483 22.5292 12.0404 21.1493 12.0404 19.461V16.4904H8.9234ZM8.9234 1.47083C7.25579 1.47083 5.90394 2.82269 5.90394 4.49027C5.90394 6.15787 7.25579 7.5097 8.9234 7.5097H12.0404V1.47083H8.9234ZM13.5112 7.5097H16.6282C18.2958 7.5097 19.6476 6.15787 19.6476 4.49027C19.6476 2.82269 18.2958 1.47083 16.6282 1.47083H13.5112V7.5097Z"/>
</svg>
