<svg preserveAspectRatio="none" viewBox="0 0 24 24" id="img" fill="currentColor" xmlns="http://www.w3.org/2000/svg">
<path d="M23.5465 10.931L13.0707 0.452498C12.7807 0.162754 12.3875 0 11.9776 0C11.5676 0 11.1745 0.162754 10.8845 0.452498L8.70624 2.6291L11.4662 5.38909C12.9159 4.89945 14.2884 6.28748 13.7907 7.72908L16.451 10.3894C18.2848 9.75729 19.7285 12.0501 18.3512 13.4264C16.9321 14.8455 14.59 13.2726 15.3512 11.426L12.8682 8.94622V15.4739C14.2235 16.1457 14.0607 17.7158 13.3546 18.4203C13.0097 18.7651 12.5419 18.9587 12.0542 18.9587C11.5665 18.9587 11.0987 18.7651 10.7537 18.4203C9.81249 17.4774 10.1607 15.9073 11.3564 15.4203V8.83104C10.2421 8.37515 10.0386 7.18426 10.3578 6.42033L7.63696 3.69624L0.451987 10.8823C0.162113 11.1722 -0.000732422 11.5654 -0.000732422 11.9754C-0.000732422 12.3854 0.162113 12.7786 0.451987 13.0685L10.9311 23.5471C11.221 23.8368 11.6141 23.9995 12.0239 23.9995C12.4338 23.9995 12.8269 23.8368 13.1168 23.5471L23.5465 13.1173C23.8364 12.8273 23.9993 12.4341 23.9993 12.0242C23.9993 11.6142 23.8364 11.221 23.5465 10.931Z" />
</svg>
