<svg preserveAspectRatio="none" viewBox="0 0 25 24" id="img" fill="currentColor" xmlns="http://www.w3.org/2000/svg">
<path d="M1.55961 5.81738C-0.61474 8.9426 -0.344062 13.0085 1.31695 16.3291C1.35644 16.4087 1.39784 16.4871 1.4386 16.5654C1.46472 16.6151 1.48923 16.666 1.5163 16.7151C1.53159 16.7444 1.54878 16.773 1.5647 16.8011C1.59304 16.8539 1.62202 16.9042 1.65132 16.9558C1.70291 17.0469 1.75577 17.1373 1.8099 17.2278C1.83984 17.2774 1.86945 17.3271 1.90034 17.3768C1.96021 17.4736 2.02167 17.5691 2.0844 17.6647C2.11052 17.7054 2.13599 17.7462 2.16274 17.7857C2.24936 17.915 2.33788 18.0436 2.42927 18.1704C2.43154 18.1736 2.43403 18.1774 2.4369 18.1805C2.45125 18.2009 2.46716 18.2207 2.4818 18.241C2.56078 18.3499 2.6423 18.4576 2.72477 18.5639C2.75503 18.6028 2.7856 18.6416 2.81617 18.6805C2.88973 18.7728 2.96456 18.8646 3.04067 18.9563C3.06901 18.9906 3.09767 19.025 3.12633 19.0588C3.22855 19.1792 3.33268 19.2989 3.43903 19.4161C3.44099 19.4179 3.4435 19.4205 3.44539 19.4224C3.44986 19.4275 3.45367 19.4307 3.45749 19.4358C3.5613 19.5492 3.66766 19.66 3.77531 19.7708C3.80874 19.8052 3.84282 19.8396 3.87721 19.8734C3.96064 19.9574 4.04534 20.0402 4.13101 20.1224C4.16572 20.1555 4.20011 20.1892 4.23482 20.2211C4.34914 20.3287 4.46473 20.4344 4.58256 20.5376C4.58452 20.5395 4.58605 20.5409 4.58797 20.5421C4.60803 20.5599 4.62873 20.5765 4.64848 20.5937C4.75229 20.6835 4.85801 20.7726 4.96436 20.8605C5.00767 20.8956 5.05162 20.93 5.09525 20.965C5.18218 21.0344 5.27007 21.1032 5.35859 21.1707C5.40541 21.2064 5.45222 21.242 5.49935 21.2777C5.59711 21.3497 5.69551 21.4204 5.79486 21.4898C5.83116 21.5159 5.86619 21.5414 5.90249 21.5662C5.91267 21.5732 5.92193 21.5802 5.9321 21.5872C6.02637 21.6522 6.12285 21.7146 6.21903 21.777C6.26043 21.8044 6.30151 21.8331 6.34323 21.8598C6.49098 21.9535 6.64098 22.0458 6.79255 22.135C6.83363 22.1586 6.87534 22.1815 6.91674 22.205C7.0282 22.2694 7.14029 22.3324 7.25396 22.3942C7.31543 22.4273 7.37848 22.4585 7.44058 22.4904C7.52082 22.5324 7.60043 22.5751 7.68196 22.6158C7.70041 22.6248 7.71953 22.6337 7.73768 22.6426C7.77048 22.6585 7.8036 22.6738 7.8364 22.6903C7.96282 22.7508 8.0902 22.8101 8.21886 22.8674C8.24625 22.8795 8.27268 22.8916 8.29975 22.9037C8.44719 22.968 8.59589 23.0298 8.74589 23.089C8.78187 23.1037 8.81817 23.1177 8.85448 23.1317C8.99332 23.1852 9.13408 23.2381 9.27547 23.2877C9.29331 23.2941 9.3105 23.2998 9.32833 23.3062C9.48341 23.3603 9.64009 23.4106 9.79771 23.4597C9.83529 23.4705 9.87318 23.4826 9.91107 23.4934C10.0716 23.5418 10.2302 23.5998 10.3957 23.6304C20.9114 25.548 23.9659 17.311 23.9659 17.311C21.4005 20.6533 16.8468 21.5348 12.5323 20.5534C12.3689 20.5165 12.2103 20.4655 12.0508 20.4184C12.0103 20.4063 11.9705 20.3942 11.9307 20.3821C11.775 20.3343 11.6206 20.284 11.4671 20.2311C11.4461 20.2235 11.4247 20.2158 11.4034 20.2082C11.2658 20.1598 11.1298 20.1088 10.9945 20.0566C10.9563 20.0413 10.9181 20.0267 10.8799 20.0114C10.7315 19.9528 10.584 19.8917 10.4385 19.828C10.4086 19.8152 10.3799 19.8019 10.3503 19.7891C10.2251 19.7324 10.1013 19.6751 9.97803 19.6159C9.94236 19.5987 9.9067 19.5821 9.87039 19.5643C9.77361 19.5171 9.67787 19.4667 9.58239 19.4177C9.51848 19.384 9.45352 19.3522 9.39013 19.317C9.27352 19.2547 9.159 19.1897 9.045 19.1234C9.00639 19.1018 8.96726 19.0809 8.92839 19.0585C8.77683 18.9693 8.62709 18.8769 8.47891 18.7833C8.43796 18.7572 8.39804 18.7293 8.35761 18.7024C8.25013 18.633 8.14318 18.5623 8.03778 18.4898C8.00283 18.466 7.96918 18.4407 7.93474 18.4173C7.833 18.3453 7.73231 18.2725 7.63239 18.1987C7.587 18.165 7.54239 18.1311 7.49831 18.0974C7.40674 18.0273 7.3157 17.9566 7.22544 17.884C7.18468 17.8516 7.14391 17.8191 7.10379 17.7866C6.98915 17.6923 6.87578 17.5974 6.76401 17.5C6.75224 17.4898 6.73949 17.4796 6.72675 17.4688C6.60574 17.3624 6.48696 17.2535 6.36946 17.144C6.33539 17.1115 6.30227 17.0797 6.26883 17.0472C6.1819 16.9644 6.09624 16.881 6.01217 16.7956C5.97841 16.7619 5.94466 16.7287 5.91154 16.695C5.80454 16.5854 5.69945 16.4746 5.59659 16.3619C5.5915 16.3562 5.58609 16.3511 5.581 16.3453C5.47209 16.2262 5.36573 16.1046 5.26159 15.9817C5.23326 15.9479 5.20587 15.9155 5.17784 15.8823C5.10014 15.7887 5.02308 15.6938 4.94793 15.5983C4.91975 15.5638 4.89158 15.5286 4.86366 15.4931C4.77314 15.3758 4.68471 15.2586 4.5981 15.1397C2.20272 11.8723 1.34219 7.36575 3.25671 3.66479"/>
<path d="M8.30912 3.18437C6.73665 5.44724 6.82198 8.47637 8.04863 10.8696C8.25435 11.2708 8.48553 11.66 8.74411 12.0306C8.97975 12.3682 9.24088 12.7701 9.55359 13.0414C9.66695 13.1662 9.78542 13.2879 9.90641 13.4076C9.93696 13.4388 9.96819 13.4687 9.9994 13.4993C10.1169 13.6133 10.2363 13.7254 10.3599 13.8343C10.365 13.8381 10.3694 13.8432 10.3745 13.8471C10.3758 13.8484 10.3771 13.8489 10.378 13.8503C10.5146 13.9701 10.6557 14.0853 10.799 14.1987C10.8308 14.2229 10.8624 14.2484 10.8945 14.2732C11.0381 14.3834 11.1846 14.4917 11.3349 14.5948C11.3394 14.5981 11.3432 14.6012 11.3477 14.6044C11.4139 14.6502 11.4814 14.6929 11.5486 14.7369C11.5808 14.7579 11.6113 14.7802 11.6438 14.7999C11.7511 14.8687 11.8597 14.9356 11.9702 14.9999C11.9858 15.0094 12.0011 15.0177 12.0164 15.0266C12.1116 15.0814 12.2081 15.1355 12.3049 15.1878C12.3387 15.2069 12.3731 15.2234 12.4075 15.2413C12.4743 15.2763 12.5412 15.312 12.6094 15.3457C12.6195 15.3508 12.6301 15.3553 12.6399 15.3597C12.7784 15.4279 12.9182 15.4935 13.0609 15.5559C13.0915 15.5693 13.123 15.5814 13.1539 15.5941C13.2679 15.6425 13.3832 15.6897 13.4991 15.7342C13.5481 15.7527 13.5978 15.7705 13.6468 15.7884C13.7519 15.8272 13.8573 15.8629 13.9637 15.8986C14.0118 15.9138 14.0589 15.9298 14.107 15.9444C14.2582 15.9915 14.4076 16.0508 14.5652 16.0769C22.6843 17.422 24.5586 11.171 24.5586 11.171C22.869 13.6045 19.5969 14.7655 16.1051 13.8592C15.95 13.8185 15.7972 13.7739 15.6453 13.7261C15.5988 13.7121 15.5533 13.6968 15.5071 13.6815C15.3991 13.6465 15.2918 13.6096 15.1855 13.5707C15.1367 13.5529 15.088 13.5351 15.0403 13.5166C14.9237 13.472 14.8084 13.4255 14.6941 13.3771C14.6629 13.3637 14.6314 13.3516 14.6008 13.3376C14.4575 13.2752 14.3164 13.2096 14.1773 13.1408C14.1056 13.1058 14.0352 13.0689 13.9649 13.0325C13.9241 13.0115 13.883 12.9905 13.8423 12.9695C13.7518 12.9205 13.662 12.8695 13.5735 12.8179C13.5525 12.8058 13.5305 12.7943 13.5092 12.7816C13.3993 12.7173 13.291 12.6511 13.1837 12.5829C13.1506 12.5619 13.1187 12.539 13.0856 12.5173C13.0149 12.4715 12.9442 12.425 12.8748 12.3778C12.7251 12.2747 12.5796 12.1664 12.436 12.0568C12.4029 12.0307 12.3698 12.0052 12.3373 11.9791C10.8089 10.7723 9.59738 9.12339 9.02138 7.25348C8.41773 5.31417 8.5479 3.13721 9.59373 1.37061"/>
<path d="M13.9855 1.2175C13.0585 2.58172 12.9675 4.27594 13.6107 5.78272C14.289 7.38196 15.679 8.63663 17.3012 9.23142C17.3681 9.25628 17.435 9.27854 17.5028 9.30147C17.5324 9.31039 17.5617 9.32059 17.5917 9.32948C17.6872 9.35942 17.7821 9.39445 17.8808 9.41292C22.3639 10.2791 23.5798 7.11246 23.9035 6.64639C22.8383 8.18002 21.0483 8.54813 18.852 8.01507C18.6786 7.97281 18.4879 7.9102 18.3206 7.85099C18.1062 7.77455 17.8949 7.68742 17.6896 7.58881C17.2996 7.40151 16.9279 7.17403 16.5833 6.91368C14.6179 5.42255 13.397 2.57777 14.6794 0.260986"/>
</svg>
