<svg preserveAspectRatio="none" viewBox="0 0 24 24" id="img" fill="currentColor" xmlns="http://www.w3.org/2000/svg">
<path d="M21.4286 0H2.57143C1.15179 0 0 1.15179 0 2.57143V21.4286C0 22.8482 1.15179 24 2.57143 24H21.4286C22.8482 24 24 22.8482 24 21.4286V2.57143C24 1.15179 22.8482 0 21.4286 0ZM13.0607 18.7179C13.0607 21.0536 11.6893 22.1196 9.69107 22.1196C7.88571 22.1196 6.84107 21.1875 6.30536 20.0571L8.14286 18.9482C8.49643 19.575 8.81786 20.1054 9.59464 20.1054C10.3339 20.1054 10.8054 19.8161 10.8054 18.6857V11.0196H13.0607V18.7179V18.7179ZM18.3964 22.1196C16.3018 22.1196 14.9464 21.1232 14.2875 19.8161L16.125 18.7554C16.6071 19.5429 17.2393 20.1268 18.3482 20.1268C19.2804 20.1268 19.8804 19.6607 19.8804 19.0125C19.8804 18.2411 19.2696 17.9679 18.2357 17.5125L17.6732 17.2714C16.0446 16.5804 14.9679 15.7071 14.9679 13.8696C14.9679 12.1768 16.2589 10.8911 18.2679 10.8911C19.7036 10.8911 20.7321 11.3893 21.4714 12.6964L19.7143 13.8214C19.3286 13.1304 18.9107 12.8571 18.2625 12.8571C17.6036 12.8571 17.1857 13.275 17.1857 13.8214C17.1857 14.4964 17.6036 14.7696 18.5732 15.1929L19.1357 15.4339C21.0536 16.2536 22.1304 17.0946 22.1304 18.9804C22.1304 21.0054 20.5339 22.1196 18.3964 22.1196V22.1196Z"/>
</svg>
