<svg preserveAspectRatio="none" viewBox="0 0 24 24" id="img" fill="currentColor" xmlns="http://www.w3.org/2000/svg">
<path d="M10.9503 0.0415811C5.53019 0.512574 1.07071 4.62441 0.169847 9.98102C-0.865588 16.1338 2.92852 22.0212 8.95049 23.6062C15.3425 25.292 21.9177 21.453 23.6036 15.0461C25.1997 8.99791 21.843 2.71801 15.9219 0.654619C14.3968 0.123818 12.5764 -0.100464 10.9503 0.0415811ZM13.4174 0.355576C15.5818 0.628453 17.4919 1.42465 19.2488 2.78156C19.7534 3.17032 20.8262 4.24313 21.215 4.74777C22.8223 6.82611 23.6821 9.23341 23.7083 11.7192L23.7157 12.3547L23.4653 12.3808C23.1363 12.4107 22.9046 12.4892 22.4261 12.7322C21.9289 12.9827 21.7084 13.0462 21.2673 13.0724C20.7776 13.0985 20.4636 13.0238 19.8842 12.7472C19.2899 12.4631 18.946 12.3734 18.4451 12.3734C17.9479 12.3734 17.5891 12.4631 17.062 12.7247C16.4677 13.0163 16.2883 13.0649 15.7537 13.0649C15.2192 13.0649 15.0398 13.0163 14.4454 12.7247C13.9183 12.4631 13.5595 12.3734 13.0623 12.3734C12.5876 12.3734 12.2175 12.4631 11.7391 12.6911C11.5447 12.7845 11.3765 12.8481 11.3615 12.8331C11.3466 12.8182 11.2232 12.65 11.0886 12.4631L10.8457 12.1192L11.0251 11.9248C11.8325 11.0501 11.6494 9.65954 10.6363 9.00165C10.3111 8.79232 9.99714 8.70635 9.56727 8.70635C9.01778 8.70261 8.558 8.89699 8.16924 9.28948C7.61228 9.85766 7.45902 10.7697 7.80665 11.48C7.90384 11.6781 7.90758 11.6818 8.15429 11.7454C8.29634 11.7827 8.60659 11.9136 8.8533 12.0332C9.3243 12.2724 9.64577 12.3734 9.91491 12.3734H10.0831L10.2551 12.6874C10.3485 12.8593 10.427 13.0238 10.427 13.0462C10.427 13.0836 10.3635 13.0873 10.1766 13.0686C9.76912 13.0275 9.61212 12.9789 9.10001 12.7247C8.47202 12.4145 8.24774 12.3584 7.67956 12.3584C7.11138 12.3584 6.87214 12.4182 6.31144 12.706C5.76195 12.9901 5.50776 13.0574 5.00686 13.0612C4.49849 13.0649 4.30411 13.0163 3.71724 12.7247C3.08925 12.4145 2.86497 12.3584 2.29679 12.3584C1.7473 12.3584 1.48937 12.4294 0.865122 12.7509C0.629626 12.8705 0.405344 12.9714 0.367963 12.9714C0.311893 12.9714 0.300679 12.9154 0.278251 12.5304C0.263298 12.2911 0.25956 11.8538 0.274512 11.5585C0.39413 9.00165 1.21276 6.77378 2.779 4.74777C3.16775 4.24313 4.24057 3.17032 4.7452 2.78156C6.63665 1.31999 8.69257 0.512574 11.0812 0.299506C11.597 0.254649 12.853 0.284553 13.4174 0.355576ZM9.95602 9.56983C10.5167 9.7829 10.8382 10.3997 10.6737 10.9604C10.4457 11.7528 9.47008 12.0369 8.86078 11.4912C8.21784 10.9118 8.40474 9.88009 9.20842 9.57357C9.45513 9.47638 9.70184 9.47638 9.95602 9.56983ZM2.92104 12.6799C3.02944 12.706 3.30606 12.8219 3.53408 12.9378C4.16207 13.263 4.4013 13.3266 4.98817 13.3266C5.57505 13.3266 5.8068 13.263 6.43853 12.9378C6.93569 12.6836 7.20857 12.6163 7.71694 12.6201C8.17672 12.6201 8.50567 12.7135 8.98787 12.9714C9.51494 13.2555 9.79155 13.3266 10.3709 13.3266C10.9503 13.3266 11.1971 13.263 11.7914 12.9565C12.2736 12.706 12.6138 12.6201 13.081 12.6201C13.5408 12.6238 13.8137 12.6986 14.3706 12.9714C14.9351 13.2481 15.2192 13.3228 15.7537 13.3228C16.2883 13.3228 16.5761 13.2481 17.1368 12.9714C17.7087 12.6948 17.9666 12.6238 18.4451 12.6238C18.9236 12.6238 19.1815 12.6911 19.7534 12.9714C20.3179 13.2443 20.6094 13.3191 21.1178 13.3228C21.6449 13.3266 21.9888 13.2406 22.4859 12.9864C22.8896 12.7808 23.2522 12.6537 23.54 12.6238L23.697 12.6051V12.7771C23.697 12.8743 23.6858 13.0387 23.6746 13.1434L23.6484 13.3378L23.4017 13.3639C23.0691 13.4013 22.7326 13.5097 22.3476 13.7041C21.8243 13.9732 21.6374 14.0256 21.1552 14.0443C20.5982 14.0667 20.344 14.0106 19.7347 13.7191C19.1105 13.42 18.8899 13.3677 18.333 13.3677C17.7835 13.3677 17.5442 13.4237 17.0097 13.6854C16.3929 13.9882 16.2621 14.0256 15.7537 14.0443C15.193 14.0667 14.9874 14.0181 14.352 13.7191C13.724 13.42 13.5072 13.3677 12.9502 13.3677C12.3895 13.3677 12.1577 13.4237 11.5671 13.7153C11.3204 13.8387 11.0139 13.9658 10.8905 13.9957C10.584 14.0742 9.92986 14.0742 9.62708 13.9957C9.40279 13.9359 9.31682 13.8985 8.79723 13.6331C8.44212 13.4536 8.16924 13.3826 7.71694 13.3565C7.14876 13.3266 6.81607 13.4013 6.22173 13.6966C5.95633 13.8312 5.63112 13.9658 5.50776 13.9957C5.20124 14.0742 4.54709 14.0742 4.24431 13.9957C4.02002 13.9396 3.93779 13.9022 3.4182 13.6368C3.04813 13.4462 2.80142 13.3826 2.35286 13.3565C1.77346 13.3266 1.43704 13.3976 0.876336 13.6779L0.427772 13.9022L0.405344 13.7938C0.390392 13.734 0.371701 13.5845 0.356749 13.4649L0.330583 13.2443L0.491319 13.1995C0.581031 13.1733 0.805314 13.0686 0.988477 12.9714C1.36602 12.7696 1.60152 12.6836 1.9043 12.635C2.15101 12.5939 2.64443 12.6163 2.92104 12.6799ZM2.78273 13.663C2.90609 13.6929 3.20887 13.82 3.45558 13.9433C4.08357 14.2573 4.4013 14.3321 5.00686 14.3059C5.54514 14.2835 5.76942 14.2199 6.37125 13.9097C6.8385 13.6705 7.08895 13.6069 7.56742 13.6069C8.0571 13.6069 8.28886 13.6705 8.83835 13.9433C9.46634 14.2573 9.78407 14.3321 10.3896 14.3059C10.9204 14.2835 11.2045 14.205 11.6718 13.9471C12.0792 13.7228 12.3671 13.6406 12.8194 13.6181C13.3576 13.592 13.6567 13.6592 14.2211 13.9396C14.8491 14.2499 15.0398 14.2984 15.679 14.2947C16.1537 14.2947 16.2284 14.2872 16.5013 14.19C16.6658 14.134 16.905 14.0293 17.0359 13.9583C17.4321 13.7377 17.761 13.6406 18.2021 13.6181C18.7441 13.592 19.032 13.6592 19.66 13.962C20.288 14.2611 20.6169 14.3358 21.1926 14.3097C21.6561 14.2872 22.0149 14.1788 22.4859 13.9209C22.7924 13.7527 23.2672 13.6069 23.4989 13.6069C23.6185 13.6069 23.626 13.6144 23.6073 13.7078C23.5961 13.7676 23.5587 13.9732 23.5251 14.1676C23.4914 14.362 23.4615 14.5265 23.4578 14.5302C23.4541 14.5339 23.3195 14.5638 23.155 14.5975C22.9606 14.6349 22.7102 14.7283 22.4373 14.8629C21.7906 15.1769 21.6449 15.2217 21.1552 15.2404C20.5982 15.2629 20.344 15.2068 19.7347 14.9152C19.1105 14.6162 18.8899 14.5601 18.333 14.5638C17.7797 14.5638 17.5592 14.6199 16.9312 14.9152C16.3518 15.1881 16.12 15.2516 15.6603 15.2516C15.1818 15.2516 14.9089 15.1806 14.352 14.9152C13.7277 14.6162 13.5072 14.5638 12.9502 14.5638C12.3895 14.5638 12.1577 14.6199 11.5671 14.9152C10.9989 15.1956 10.7821 15.2516 10.2663 15.2516C9.74669 15.2516 9.51867 15.1918 8.96918 14.9152C8.42717 14.6386 8.19915 14.5751 7.67956 14.5526C7.12259 14.5265 6.76748 14.6124 6.17687 14.9152C5.62738 15.1918 5.4031 15.2516 4.88351 15.2516C4.36392 15.2516 4.1359 15.1918 3.59015 14.9152C3.02197 14.6311 2.83133 14.5751 2.31548 14.5526C1.78468 14.5302 1.36602 14.6162 0.939883 14.8405C0.782885 14.9227 0.652054 14.9825 0.648316 14.9788C0.629626 14.9563 0.483842 14.2798 0.48758 14.2199C0.48758 14.1302 1.25762 13.7415 1.58656 13.6667C1.88934 13.5957 2.50612 13.592 2.78273 13.663ZM2.95095 14.9077C3.06309 14.9451 3.32475 15.0685 3.53034 15.1731C4.06862 15.4498 4.41252 15.5283 5.00686 15.5021C5.54888 15.4797 5.78064 15.4161 6.29649 15.1395C6.83476 14.8554 6.9656 14.8218 7.56742 14.8218C8.17298 14.8218 8.28138 14.8479 8.89442 15.1657C9.38784 15.4161 9.75791 15.5133 10.2439 15.5133C10.756 15.5133 11.1148 15.4273 11.5821 15.1881C12.1316 14.904 12.3558 14.8367 12.8194 14.8143C13.3464 14.7881 13.6567 14.8592 14.1837 15.1171C14.8753 15.4535 15.2154 15.5357 15.806 15.5021C16.2733 15.4759 16.5238 15.4049 17.0246 15.1582C17.5218 14.9115 17.918 14.8031 18.3292 14.8031C18.7815 14.8031 19.0955 14.8853 19.66 15.1545C20.2992 15.4572 20.6057 15.5283 21.1514 15.5021C21.6598 15.4797 21.8953 15.4124 22.4448 15.1395C22.6915 15.0161 23.0018 14.8928 23.1326 14.8629L23.3681 14.8068L23.3457 14.9451C23.3345 15.0199 23.2746 15.2442 23.2111 15.4423L23.099 15.8049L22.9307 15.846C22.841 15.8684 22.6167 15.9656 22.4373 16.0553C21.8729 16.3469 21.6374 16.4179 21.1664 16.4403C20.6206 16.4628 20.3141 16.3955 19.7721 16.1301C19.1404 15.8198 18.9086 15.7563 18.3517 15.7563C17.8022 15.7563 17.4508 15.8385 17.0172 16.074C16.5312 16.3357 16.2509 16.4179 15.7836 16.4403C15.2379 16.4628 14.9313 16.3955 14.3893 16.1301C13.7576 15.8198 13.5258 15.7563 12.9689 15.7563C12.3857 15.7563 12.1652 15.8123 11.5671 16.1114C10.9989 16.3917 10.7821 16.4478 10.2663 16.4478C9.70558 16.4478 9.32803 16.3394 8.83835 16.0366C8.59538 15.8871 8.14682 15.7712 7.73937 15.7488C7.1525 15.7189 6.83103 15.7899 6.22173 16.0927C5.61616 16.3917 5.40683 16.4478 4.88351 16.4478C4.3228 16.4478 3.94526 16.3394 3.45558 16.0366C3.39577 15.9993 3.20887 15.9208 3.0444 15.8609C2.76778 15.7638 2.70424 15.7563 2.18465 15.76C1.67254 15.7638 1.59778 15.7712 1.34359 15.8647C1.19033 15.9208 1.04081 15.9693 1.01091 15.9731C0.962311 15.9806 0.745505 15.4273 0.745505 15.289C0.745505 15.1881 1.35854 14.8965 1.71739 14.8255C1.76973 14.818 2.02017 14.8143 2.2781 14.8218C2.62574 14.8292 2.79769 14.8517 2.95095 14.9077ZM2.78273 16.0553C2.90609 16.0852 3.20887 16.2123 3.45558 16.3357C4.02002 16.616 4.3714 16.7095 4.87603 16.7095C5.38441 16.7095 5.73578 16.616 6.29649 16.3357C6.82355 16.074 7.10016 15.9993 7.58611 15.9993C8.05336 15.9993 8.29634 16.0628 8.83835 16.3357C9.40279 16.616 9.75417 16.7095 10.2588 16.7095C10.7634 16.7095 11.1148 16.616 11.6793 16.3394C12.1876 16.089 12.5241 15.9993 12.9577 15.9993C13.3913 15.9993 13.7127 16.0852 14.2361 16.3319C14.9014 16.6497 15.0584 16.6908 15.6416 16.6908C16.2397 16.6908 16.4453 16.6385 17.062 16.3394C17.5704 16.089 17.9106 15.9993 18.3404 15.9993C18.7703 15.9993 19.0843 16.0815 19.6151 16.3319C20.2954 16.6497 20.4449 16.6908 21.0243 16.6908C21.6262 16.6908 21.8355 16.6385 22.4448 16.3357C22.6915 16.2123 22.9158 16.1114 22.9382 16.1114C22.9906 16.1114 22.9382 16.2647 22.6803 16.8515C22.5345 17.1842 22.5196 17.1992 22.3177 17.3076C21.8953 17.5393 21.6187 17.6141 21.1552 17.6328C20.5982 17.6552 20.344 17.5954 19.7347 17.3076C19.1105 17.0085 18.8899 16.9562 18.333 16.9562C17.7835 16.9562 17.5442 17.0123 17.0097 17.2739C16.4004 17.573 16.2584 17.6141 15.7724 17.6328C15.2154 17.6552 14.9613 17.5991 14.352 17.3076C13.7277 17.0085 13.5072 16.9562 12.9502 16.9562C12.3895 16.9562 12.1577 17.0123 11.5671 17.3038C11.3204 17.4272 11.0139 17.5543 10.8905 17.5842C10.584 17.6627 9.92986 17.6627 9.62708 17.5842C9.40279 17.5281 9.32056 17.4907 8.80097 17.2253C8.43091 17.0347 8.1842 16.9711 7.73563 16.945C7.14502 16.9151 6.82355 16.9861 6.22173 17.2851C5.95633 17.4197 5.63112 17.5543 5.50776 17.5842C5.20124 17.6627 4.54709 17.6627 4.24431 17.5842C4.02002 17.5281 3.93779 17.4907 3.4182 17.2253C3.27615 17.1506 3.06309 17.0609 2.95095 17.0272C2.65938 16.9375 1.98653 16.9151 1.6688 16.9786C1.48937 17.0197 1.40714 17.0235 1.38471 16.9936C1.34359 16.9338 1.08193 16.317 1.08193 16.2684C1.08193 16.2273 1.29126 16.1376 1.58656 16.0553C1.84449 15.988 2.50612 15.9843 2.78273 16.0553ZM2.78273 17.2515C2.90609 17.2814 3.20887 17.4085 3.45558 17.5318C4.08357 17.8458 4.4013 17.9206 5.00686 17.8944C5.54514 17.872 5.76942 17.8085 6.37125 17.4982C6.8385 17.259 7.08895 17.1954 7.56742 17.1954C8.05336 17.1954 8.28512 17.2552 8.84209 17.5318C9.47382 17.8458 9.78781 17.9206 10.3896 17.8944C10.9204 17.872 11.2045 17.7935 11.6718 17.5356C12.0792 17.3113 12.3671 17.2291 12.8194 17.2066C13.3576 17.1805 13.6567 17.2478 14.2249 17.5281C14.7818 17.801 15.0061 17.8645 15.5182 17.8944C16.049 17.9243 16.4826 17.8272 16.9873 17.5655C17.5181 17.2963 17.7424 17.2291 18.2208 17.2066C18.7591 17.1805 19.0133 17.2403 19.66 17.5505C20.288 17.8496 20.6169 17.9243 21.1926 17.8982C21.5551 17.8795 21.8019 17.8197 22.2168 17.6589C22.2766 17.6365 22.2691 17.6664 22.1644 17.8533C21.899 18.3168 21.5626 18.7953 21.4804 18.8177C21.3234 18.8588 20.6842 18.8402 20.4449 18.7841C20.3104 18.7504 19.9926 18.6271 19.7347 18.5037C19.1105 18.2047 18.8899 18.1524 18.333 18.1524C17.776 18.1524 17.5554 18.2047 16.9312 18.5037C16.3555 18.7766 16.12 18.8402 15.6603 18.8402C15.1818 18.8402 14.9089 18.7691 14.352 18.5037C13.7277 18.2047 13.5072 18.1524 12.9502 18.1524C12.3895 18.1524 12.1577 18.2084 11.5671 18.5037C10.9989 18.7841 10.7821 18.8402 10.2663 18.8402C9.74669 18.8402 9.51867 18.7803 8.97292 18.5037C8.40474 18.2196 8.2141 18.1636 7.69825 18.1411C7.12259 18.115 6.77496 18.1972 6.17687 18.5037C5.62738 18.7803 5.4031 18.8402 4.88351 18.8402C4.36392 18.8402 4.1359 18.7803 3.59015 18.5037C3.04066 18.2271 2.83507 18.1673 2.36407 18.1411L1.97906 18.1187L1.75104 17.7113C1.62021 17.4795 1.53423 17.2889 1.55292 17.2702C1.64263 17.1842 2.46874 17.173 2.78273 17.2515ZM2.95095 18.4963C3.06309 18.5374 3.32475 18.6533 3.53034 18.7617C4.00507 19.0046 4.37888 19.1018 4.86108 19.1018C5.38441 19.1018 5.73204 19.0158 6.22173 18.7654C6.86093 18.4365 6.95812 18.4103 7.56742 18.4103C8.17298 18.4103 8.28138 18.4365 8.89442 18.7542C9.38784 19.0084 9.75791 19.1018 10.2476 19.1018C10.7709 19.1018 11.0737 19.0233 11.6456 18.743C12.1914 18.4738 12.4941 18.3916 12.9502 18.3916C13.3988 18.3916 13.7127 18.4738 14.2772 18.743C14.9164 19.0458 15.2229 19.1168 15.7687 19.0906C16.2658 19.0682 16.5125 19.0009 16.9873 18.7654C17.5405 18.4888 17.7498 18.4252 18.2021 18.4028C18.7404 18.3766 19.0282 18.4439 19.6562 18.743C20.2281 19.0121 20.5646 19.1018 21.0019 19.1018C21.1701 19.1018 21.3047 19.113 21.3047 19.1242C21.3047 19.1467 20.9683 19.5616 20.7141 19.8494L20.5683 20.0139L20.3365 19.9504C20.2095 19.913 19.9403 19.8046 19.7385 19.7036C19.1628 19.4121 18.9049 19.3448 18.3517 19.3448C17.7835 19.3448 17.5442 19.4009 17.0209 19.6625C16.434 19.9541 16.2584 20.0064 15.7836 20.0251C15.2416 20.0513 14.9313 19.984 14.3893 19.7186C13.7576 19.4083 13.5258 19.3448 12.9689 19.3448C12.3857 19.3448 12.1652 19.4009 11.5671 19.6962C11.0064 19.9728 10.7709 20.0363 10.2738 20.0363C9.71305 20.0363 9.32056 19.9242 8.83835 19.6251C8.77854 19.5878 8.59164 19.5093 8.42717 19.4532C8.15429 19.356 8.08327 19.3485 7.58611 19.3485C6.93943 19.3485 6.79365 19.3822 6.16566 19.7036C5.62738 19.9765 5.39936 20.0363 4.89472 20.0363C4.32654 20.0363 4.0275 19.9504 3.51165 19.655C3.4182 19.6027 3.24251 19.5205 3.11916 19.4756C2.9659 19.4233 2.85749 19.356 2.79395 19.2738C2.68555 19.1355 2.23698 18.5149 2.18465 18.4327C2.13979 18.358 2.67807 18.4028 2.95095 18.4963ZM8.16551 19.6438C8.28886 19.6737 8.59164 19.8008 8.83835 19.9242C9.40279 20.2045 9.75417 20.298 10.2588 20.298C10.7597 20.298 11.1111 20.2045 11.6793 19.9279C12.1839 19.6775 12.5241 19.5878 12.9577 19.5878C13.3875 19.5878 13.7015 19.67 14.2323 19.9205C14.9127 20.2382 15.0622 20.2793 15.6416 20.2793C16.2397 20.2793 16.4453 20.227 17.062 19.9279C17.5741 19.6737 17.9106 19.5878 18.3591 19.5878C18.789 19.5878 19.0731 19.6663 19.6226 19.9242C19.8805 20.0475 20.1048 20.1485 20.116 20.1485C20.131 20.1485 20.187 20.1672 20.2431 20.1859L20.344 20.227L20.1422 20.4326C20.03 20.5484 19.8768 20.6905 19.802 20.7503L19.6637 20.8624L19.5217 20.7877C19.1778 20.612 18.8413 20.541 18.3517 20.541C17.7797 20.541 17.5517 20.597 16.9798 20.8774C16.4266 21.1465 16.1126 21.2325 15.6565 21.2325C15.1967 21.2325 14.8416 21.1428 14.3632 20.9036C13.78 20.6082 13.5221 20.541 12.9689 20.541C12.3857 20.541 12.1652 20.597 11.5671 20.8923C11.3204 21.0157 11.0139 21.1428 10.8905 21.1727C10.584 21.2512 9.92986 21.2512 9.62708 21.1727C9.40279 21.1166 9.32056 21.0792 8.80097 20.8138C8.42343 20.6195 8.18046 20.5559 7.73563 20.5335C7.14502 20.5036 6.81981 20.5746 6.22173 20.8736C5.6685 21.1503 5.38814 21.2325 5.01808 21.2325H4.76015L4.49849 21.0194C4.2144 20.7839 3.27989 19.8831 3.30232 19.8606C3.3098 19.8532 3.4481 19.9167 3.60884 19.9989C4.01255 20.2045 4.4013 20.298 4.87603 20.298C5.37693 20.298 5.74326 20.2045 6.22173 19.9578C6.75627 19.6775 7.06652 19.5915 7.54873 19.5915C7.78423 19.5878 8.03467 19.6102 8.16551 19.6438ZM8.16551 20.84C8.28886 20.8699 8.59164 20.997 8.84209 21.1204C9.47382 21.4344 9.78781 21.5091 10.3896 21.4829C10.9204 21.4605 11.2045 21.382 11.6718 21.1241C12.0792 20.8998 12.3671 20.8176 12.8231 20.7952C13.3576 20.7652 13.6642 20.8363 14.2323 21.1204C14.7781 21.3895 15.0061 21.453 15.5182 21.4829C16.049 21.5129 16.4826 21.4157 16.991 21.154C17.5779 20.8512 17.7685 20.8026 18.333 20.8026C18.7329 20.8026 18.8638 20.8176 19.0806 20.8849C19.4656 21.0082 19.4805 21.0232 19.3235 21.1577C19.2525 21.2175 19.0581 21.3633 18.8937 21.4829L18.5984 21.6998L18.2395 21.7222C17.7498 21.7558 17.477 21.8306 16.9312 22.0885C16.3032 22.3838 16.2658 22.395 15.7724 22.4175C15.2192 22.4436 14.965 22.3838 14.352 22.0922C13.7277 21.7932 13.5072 21.7409 12.9502 21.7409C12.3895 21.7409 12.1577 21.7969 11.5671 22.0885C11.0064 22.3651 10.7709 22.4287 10.2738 22.4287C9.76165 22.4287 9.50372 22.3614 8.97666 22.096C8.41222 21.8119 8.21784 21.7521 7.71694 21.7297C7.20109 21.7035 6.82729 21.7745 6.39741 21.9801C6.13201 22.1072 6.07221 22.1222 6.00492 22.0848C5.87035 22.0175 5.19377 21.5614 5.17508 21.5315C5.16386 21.5129 5.22741 21.4904 5.31338 21.4755C5.59 21.4344 5.94511 21.3035 6.35256 21.0942C6.56936 20.9858 6.8385 20.8699 6.95064 20.84C7.22726 20.769 7.88889 20.769 8.16551 20.84ZM8.16551 22.0362C8.28886 22.0661 8.59164 22.1932 8.83835 22.3165C9.40653 22.5969 9.75791 22.6903 10.2476 22.6903C10.7709 22.6903 11.0737 22.6118 11.6456 22.3315C12.1914 22.0623 12.4941 21.9801 12.9502 21.9801C13.3988 21.9801 13.7127 22.0661 14.2772 22.3315C14.5538 22.4623 14.9014 22.5969 15.051 22.6305C15.6752 22.7688 16.3705 22.6679 16.991 22.3502C17.1891 22.2492 17.4545 22.1334 17.5816 22.0922C17.8246 22.0175 18.1274 21.9614 18.1274 21.9913C18.1274 22.01 17.5031 22.3689 17.2115 22.5146C16.6247 22.8062 15.8135 23.1127 15.107 23.3108L14.6473 23.4342L14.3183 23.2735C13.78 23.0006 13.5109 22.9333 12.9689 22.9333C12.3857 22.9333 12.1652 22.9894 11.5671 23.2847C10.8008 23.666 10.6027 23.6847 9.66072 23.494C9.32056 23.4267 9.11497 23.3632 8.97292 23.2809C8.65893 23.1053 8.31876 22.9894 7.94496 22.9333C7.7132 22.8997 7.4964 22.8361 7.26464 22.7352C6.77122 22.5184 6.38994 22.3203 6.38994 22.2829C6.38994 22.2306 6.86467 22.0474 7.10016 22.0063C7.33566 21.9652 7.95991 21.9838 8.16551 22.0362ZM13.4623 23.2174C13.724 23.2735 14.2174 23.4753 14.1763 23.5127C14.0492 23.6361 11.5709 23.808 11.4101 23.7071C11.3167 23.6473 12.1615 23.2623 12.5203 23.2024C12.7184 23.1688 13.2754 23.18 13.4623 23.2174Z"/>
<path d="M3.6276 8.77369C3.5491 8.84098 3.5491 8.84845 3.55658 10.411L3.56779 11.9809L3.88552 12.1379C4.44997 12.4183 5.06674 12.4781 5.62371 12.3099L5.84799 12.2389L5.85921 11.966C5.86668 11.7978 5.85173 11.6744 5.82556 11.6408C5.79192 11.5996 5.63866 11.5884 5.07796 11.5884H4.37147V10.2091C4.37147 9.00171 4.36399 8.81855 4.31166 8.76995C4.22569 8.68024 3.736 8.68772 3.6276 8.77369Z"/>
<path d="M6.40866 8.75492C6.36754 8.77735 6.32269 8.81473 6.30774 8.83716C6.29278 8.85959 6.27783 9.57355 6.27783 10.4221V11.9622L6.41988 11.9023C6.49464 11.8724 6.6778 11.8126 6.81985 11.7753L7.08151 11.708L7.09272 10.2875L7.1002 8.86707L7.00301 8.78857C6.89087 8.69885 6.53949 8.68016 6.40866 8.75492Z"/>
<path d="M12.0568 8.75876C11.997 8.79988 11.9933 8.90455 12.0045 10.1119C12.0232 11.7155 12.0382 11.8015 12.3335 11.7342C12.4269 11.7118 12.6475 11.6931 12.8269 11.6894L13.1521 11.6819L13.0437 11.5698C12.8269 11.3455 12.8194 11.2932 12.8194 9.96615C12.8194 8.89707 12.8119 8.75129 12.7596 8.7326C12.6475 8.69148 12.1241 8.71017 12.0568 8.75876Z"/>
<path d="M14.3743 8.76978C14.322 8.81838 14.3145 8.98659 14.3145 10.022C14.3145 11.4799 14.3033 11.5285 13.8846 11.7228C13.7837 11.7714 13.7239 11.8125 13.7538 11.8125C13.7837 11.8125 14.0117 11.906 14.2584 12.0219L14.707 12.2312L14.8117 12.1041C14.9425 11.9508 15.0397 11.7415 15.0958 11.4836C15.1556 11.1995 15.1518 8.81464 15.092 8.75483C15.021 8.68381 14.4453 8.69502 14.3743 8.76978Z"/>
<path d="M15.9854 8.73631C15.9704 8.74752 15.9592 9.5811 15.9592 10.5829V12.4033L16.2172 12.3547C16.3592 12.3248 16.5461 12.2688 16.6283 12.2239L16.7816 12.1491V10.5231C16.7816 9.56241 16.7666 8.8634 16.7442 8.80733C16.7106 8.71388 16.6994 8.71014 16.3592 8.71014C16.1648 8.71014 15.9966 8.72136 15.9854 8.73631Z"/>
<path d="M17.7536 8.73632C17.7236 8.74753 17.6676 8.78117 17.6339 8.81482C17.5704 8.86715 17.5667 8.98677 17.5667 10.3026V11.7342L17.933 11.7155C18.1311 11.7043 18.318 11.6894 18.3442 11.6782C18.3778 11.6707 18.389 11.409 18.389 10.538V9.4129L18.8114 9.42785C19.1516 9.43907 19.26 9.45776 19.3871 9.52504C19.6338 9.65587 19.7983 9.81661 19.9104 10.0484C20.0487 10.3362 20.0562 10.7661 19.9291 11.0464C19.7721 11.3903 19.3721 11.7006 19.0843 11.7006C18.931 11.7006 18.9759 11.7305 19.3161 11.8464C19.4805 11.9062 19.7085 12.0034 19.8244 12.0669L20.03 12.1865L20.2094 12.0407C20.5421 11.7791 20.7515 11.4277 20.8449 10.9642C21.0505 9.95118 20.3216 8.912 19.2861 8.74753C19.0357 8.71015 17.8545 8.69894 17.7536 8.73632Z"/>
</svg>
