<svg preserveAspectRatio="none" viewBox="0 0 24 24" id="img" fill="currentColor" xmlns="http://www.w3.org/2000/svg">
<path d="M12.0343 24C11.7152 24 11.3914 23.9143 11.1104 23.7524L8.172 22.0141C7.73386 21.7664 7.94817 21.6807 8.09104 21.6331C8.67681 21.4283 8.79587 21.3855 9.41975 21.0283C9.48642 20.9902 9.57214 21.0045 9.63881 21.0473L11.8962 22.3856C11.9771 22.4332 12.0914 22.4332 12.1676 22.3856L20.9637 17.3089C21.0447 17.2612 21.0971 17.166 21.0971 17.0707V6.91735C21.0971 6.81734 21.0447 6.72686 20.959 6.67447L12.1676 1.60254C12.0867 1.55492 11.9771 1.55492 11.8962 1.60254L3.1096 6.67923C3.02387 6.72686 2.97149 6.8221 2.97149 6.92211V17.0707C2.97149 17.166 3.02387 17.2612 3.1096 17.3041L5.51936 18.6947C6.82901 19.3472 7.62909 18.5804 7.62909 17.8041V7.78411C7.62909 7.64123 7.74339 7.5317 7.88626 7.5317H9.00066C9.13877 7.5317 9.25782 7.64123 9.25782 7.78411V17.8089C9.25782 19.5519 8.30535 20.552 6.6528 20.552C6.14323 20.552 5.74319 20.552 4.62879 19.9996L2.3238 18.6709C1.75232 18.3423 1.3999 17.7279 1.3999 17.066V6.91735C1.3999 6.26014 1.75232 5.64104 2.3238 5.31243L11.1104 0.235738C11.6676 -0.0785792 12.4058 -0.0785792 12.9582 0.235738L21.7543 5.31719C22.3258 5.6458 22.6782 6.26014 22.6782 6.92211V17.0707C22.6782 17.7279 22.3258 18.3423 21.7543 18.6757L12.9582 23.7524C12.6772 23.9143 12.3581 24 12.0343 24ZM19.135 13.9942C19.135 12.0941 17.8492 11.5892 15.1489 11.2321C12.4153 10.8701 12.1391 10.6844 12.1391 10.0462C12.1391 9.51761 12.3724 8.81278 14.3964 8.81278C16.2014 8.81278 16.8681 9.20329 17.1443 10.4225C17.1681 10.5368 17.2729 10.6225 17.392 10.6225H18.5349C18.6064 10.6225 18.673 10.5939 18.7207 10.5415C18.7683 10.4891 18.7921 10.4177 18.7873 10.3463C18.6111 8.24606 17.2158 7.26977 14.3964 7.26977C11.8867 7.26977 10.3913 8.32702 10.3913 10.1034C10.3913 12.0274 11.8819 12.5608 14.2869 12.7989C17.1681 13.0799 17.392 13.5037 17.392 14.0704C17.392 15.0515 16.6014 15.4706 14.7488 15.4706C12.42 15.4706 11.9105 14.8848 11.739 13.7276C11.72 13.6037 11.6152 13.5132 11.4866 13.5132H10.3484C10.2055 13.5132 10.096 13.6275 10.096 13.7657C10.096 15.2468 10.9008 17.0136 14.7536 17.0136C17.5348 17.0088 19.135 15.9087 19.135 13.9942V13.9942Z"/>
</svg>
