<svg preserveAspectRatio="none" viewBox="0 0 24 24" id="img" fill="currentColor" xmlns="http://www.w3.org/2000/svg">
<path d="M13.7017 7.87472L12.8788 9.29972L10.0644 4.42504L1.42473 19.3875H7.27435C7.27435 20.1745 7.91234 20.8125 8.69935 20.8125H1.42473C0.915671 20.8125 0.44533 20.5408 0.190845 20.0999C-0.0636395 19.659 -0.0636136 19.1159 0.190914 18.675L8.83057 3.71254C9.08511 3.27162 9.55555 3 10.0647 3C10.5738 3 11.0442 3.27162 11.2988 3.71254L13.7017 7.87472V7.87472Z"/>
<path d="M19.9385 18.6751L14.5247 9.29975L13.7017 7.87476L12.8788 9.29975L7.46557 18.6751C7.21104 19.1159 7.21102 19.6591 7.4655 20.0999C7.71999 20.5408 8.19033 20.8126 8.69938 20.8126H18.7029C19.212 20.8126 19.6826 20.5411 19.9372 20.1002C20.1918 19.6593 20.1919 19.116 19.9373 18.6751H19.9385ZM8.69938 19.3876L13.7017 10.7248L18.7029 19.3876H8.69938L8.69938 19.3876Z"/>
<path d="M23.8091 20.1001C23.5546 20.5409 23.0843 20.8126 22.5752 20.8126H18.7028C19.4898 20.8126 20.1278 20.1746 20.1278 19.3876H22.5723L15.6361 7.37426L14.5246 9.29979L13.7017 7.87479L14.4023 6.66176C14.6568 6.22084 15.1273 5.94922 15.6364 5.94922C16.1455 5.94922 16.616 6.22084 16.8705 6.66176L23.8091 18.6751C24.0636 19.116 24.0636 19.6592 23.8091 20.1001V20.1001Z"/>
</svg>
