<svg viewBox="0 0 24 24" id="img" fill="currentColor" xmlns="http://www.w3.org/2000/svg" preserveAspectRatio="none">
<path d="M12 6.63C18.4275 6.63 23.37 9.3375 23.37 12.3113C23.37 15.285 18.4238 17.9925 12 17.9925C5.5725 17.9925 0.63 15.285 0.63 12.3113C0.63 9.3375 5.57625 6.63 12 6.63ZM12 6C5.37375 6 0 8.82375 0 12.3113C0 15.7988 5.37375 18.6225 12 18.6225C18.6263 18.6225 24 15.7988 24 12.3113C24 8.82375 18.6263 6 12 6ZM8.1825 11.805C7.88625 13.3238 6.84 13.1662 5.55375 13.1662L6.0675 10.5188C7.4925 10.5188 8.46 10.365 8.1825 11.805ZM3.6525 15.8475H5.02875L5.355 14.1675C6.89625 14.1675 7.8525 14.28 8.7375 13.4513C9.71625 12.5513 9.97125 10.95 9.27375 10.1475C8.91 9.7275 8.325 9.52125 7.53 9.52125H4.87875L3.6525 15.8475ZM10.6163 7.8375H11.985L11.6588 9.5175C12.84 9.5175 13.935 9.43125 14.4638 9.91875C15.0188 10.4288 14.7525 11.0812 14.1525 14.16H12.765C13.3425 11.1825 13.4513 10.935 13.2413 10.71C13.0388 10.4925 12.5775 10.5375 11.4638 10.5375L10.7588 14.16H9.39L10.6163 7.8375V7.8375ZM18.9375 11.805C18.6375 13.3463 17.5613 13.1662 16.3088 13.1662L16.8225 10.5188C18.255 10.5188 19.215 10.365 18.9375 11.805V11.805ZM14.4075 15.8475H15.7875L16.1138 14.1675C17.7338 14.1675 18.63 14.2613 19.4963 13.4513C20.475 12.5513 20.73 10.95 20.0325 10.1475C19.6688 9.7275 19.0838 9.52125 18.2888 9.52125H15.6375L14.4075 15.8475V15.8475Z"/>
</svg>
