<svg width="25" height="25" viewBox="0 0 25 25" fill="none" xmlns="http://www.w3.org/2000/svg">
<path d="M22.6562 21.875H2.34375C1.04932 21.875 0 20.8257 0 19.5312V5.46875C0 4.17432 1.04932 3.125 2.34375 3.125H22.6562C23.9507 3.125 25 4.17432 25 5.46875V19.5312C25 20.8257 23.9507 21.875 22.6562 21.875ZM5.46875 5.85938C3.95859 5.85938 2.73438 7.08359 2.73438 8.59375C2.73438 10.1039 3.95859 11.3281 5.46875 11.3281C6.97891 11.3281 8.20312 10.1039 8.20312 8.59375C8.20312 7.08359 6.97891 5.85938 5.46875 5.85938ZM3.125 18.75H21.875V13.2812L17.6018 9.00806C17.373 8.77925 17.002 8.77925 16.7731 9.00806L10.1562 15.625L7.44556 12.9143C7.21675 12.6855 6.84575 12.6855 6.61689 12.9143L3.125 16.4062V18.75Z" fill="black"/>
</svg>
