<svg width="24" height="24" viewBox="0 0 24 24" id="img" fill="currentColor" xmlns="http://www.w3.org/2000/svg">
<path d="M11.3192 16.6095C11.308 16.632 11.2967 16.65 11.3192 16.6095V16.6095ZM20.6617 13.347C19.9075 13.3467 19.1633 13.5199 18.4867 13.8532C18.2654 13.407 18.0367 13.017 17.9992 12.7245C17.9542 12.3832 17.9054 12.1807 17.9579 11.7757C18.0104 11.3707 18.2467 10.7969 18.2429 10.7557C18.2392 10.7144 18.1904 10.5082 17.7067 10.5044C17.2229 10.5007 16.8067 10.5982 16.7583 10.7257C16.6729 10.9587 16.6064 11.1982 16.5596 11.4419C16.4733 11.8807 15.5924 13.4482 15.0937 14.2657C14.9287 13.947 14.7899 13.6657 14.7599 13.4407C14.7149 13.0995 14.6662 12.897 14.7187 12.492C14.7712 12.0869 15.0074 11.5132 15.0037 11.4719C14.9999 11.4307 14.9512 11.2244 14.4678 11.2207C13.9844 11.2169 13.5678 11.3144 13.519 11.4419C13.4703 11.5694 13.4178 11.8694 13.3203 12.1582C13.2228 12.447 12.0494 15.057 11.7422 15.7357C11.5847 16.0807 11.4497 16.3582 11.3522 16.5457C11.3372 16.5757 11.326 16.5945 11.3185 16.6095C11.3297 16.5907 11.3372 16.572 11.3372 16.5795C11.2547 16.7408 11.206 16.8308 11.206 16.8308V16.8345C11.1422 16.9545 11.071 17.0633 11.0372 17.0633C11.0147 17.0633 10.966 16.7483 11.0485 16.317C11.2247 15.4095 11.641 13.9995 11.6372 13.9507C11.6335 13.9245 11.716 13.6807 11.3635 13.5495C11.0222 13.4257 10.8985 13.632 10.8685 13.632C10.8385 13.632 10.816 13.707 10.816 13.707C10.816 13.707 11.1947 12.1169 10.0889 12.1169C9.39884 12.1169 8.43883 12.8745 7.96708 13.5607C7.67082 13.722 7.02957 14.0707 6.35456 14.442C6.09581 14.5845 5.82955 14.7307 5.5783 14.8695C5.55955 14.8507 5.54455 14.832 5.5258 14.8132C4.18366 13.3807 1.70563 12.3682 1.81063 10.4444C1.84813 9.74317 2.09188 7.9019 6.57581 5.66687C10.2509 3.83685 13.189 4.33936 13.6949 5.45687C14.4224 7.05064 12.124 10.0169 8.30758 10.4444C6.85294 10.6057 6.08831 10.0432 5.89705 9.83317C5.6983 9.61192 5.6683 9.60067 5.5933 9.64192C5.46955 9.70942 5.5483 9.90442 5.5933 10.0207C5.7058 10.3169 6.17456 10.8419 6.97294 11.1044C7.6742 11.3332 9.37972 11.4607 11.4419 10.6619C13.7586 9.76942 15.562 7.28314 15.0333 5.20187C14.4948 3.08684 10.9877 2.39308 7.67157 3.5706C5.69568 4.27186 3.5589 5.37437 2.02176 6.81064C0.195863 8.52066 -0.0962656 10.0094 0.0237358 10.6319C0.450866 12.8407 3.49515 14.2807 4.71354 15.3457C4.65354 15.3795 4.59729 15.4095 4.54479 15.4395C3.93391 15.7432 1.613 16.9583 1.03212 18.2408C0.375865 19.6958 1.14087 20.7383 1.643 20.8808C3.21015 21.3158 4.81479 20.532 5.67693 19.2458C6.53906 17.9595 6.43444 16.2795 6.03693 15.5145C6.03318 15.5032 6.02568 15.4957 6.02193 15.4845C6.17943 15.3907 6.34068 15.297 6.50194 15.2032C6.81281 15.0195 7.11657 14.8507 7.38282 14.7045C7.23282 15.1095 7.12407 15.597 7.06782 16.302C7.00032 17.127 7.34157 18.1958 7.78408 18.6158C7.97908 18.7995 8.21496 18.8033 8.36121 18.8033C8.87871 18.8033 9.11122 18.3758 9.36959 17.8658C9.68835 17.2433 9.9696 16.5195 9.9696 16.5195C9.9696 16.5195 9.6171 18.477 10.5809 18.477C10.933 18.477 11.2855 18.0233 11.4434 17.7908V17.7945C11.4434 17.7945 11.4509 17.7795 11.4696 17.7495C11.5071 17.6933 11.5259 17.6595 11.5259 17.6595V17.6483C11.6684 17.4045 11.9796 16.8458 12.448 15.9232C13.0555 14.7307 13.6364 13.242 13.6364 13.242C13.6925 13.5692 13.7702 13.8924 13.8689 14.2095C13.9739 14.5657 14.1952 14.9557 14.3714 15.3345C14.2289 15.5295 14.1427 15.642 14.1427 15.642C14.1429 15.6449 14.1443 15.6475 14.1464 15.6495C14.0339 15.7995 13.9064 15.9607 13.7751 16.1182C13.2955 16.6883 12.7251 17.3408 12.6501 17.5283C12.5601 17.7495 12.5826 17.9145 12.7551 18.042C12.8826 18.1395 13.1076 18.1545 13.3435 18.1358C13.7748 18.1058 14.0785 18.0008 14.2248 17.9333C14.4944 17.8366 14.7492 17.7028 14.9819 17.5358C15.4507 17.1908 15.7357 16.6958 15.7094 16.0432C15.6944 15.6832 15.5782 15.3232 15.4357 14.9857C15.4769 14.9257 15.5219 14.862 15.5632 14.7982C16.3053 13.7145 16.8791 12.525 16.8791 12.525C16.9352 12.8522 17.0129 13.1754 17.1116 13.4925C17.2016 13.7962 17.3774 14.13 17.5387 14.4562C16.8416 15.0225 16.4103 15.6787 16.2603 16.11C15.9828 16.9088 16.2003 17.2688 16.6091 17.3513C16.7928 17.3888 17.0553 17.3025 17.2503 17.22C17.5399 17.1235 17.813 16.9832 18.0599 16.8038C18.5287 16.4587 18.9821 15.975 18.9521 15.3187C18.9408 15.0225 18.8583 14.7262 18.7496 14.4412C19.3383 14.1937 20.103 14.0587 21.078 14.1712C23.166 14.415 23.5748 15.72 23.496 16.2637C23.4173 16.8075 22.9785 17.1113 22.8323 17.2013C22.686 17.2913 22.641 17.325 22.6523 17.3925C22.671 17.49 22.7385 17.4863 22.8623 17.4638C23.0348 17.4338 23.9569 17.0213 23.9981 16.0125C24.0581 14.7375 22.8323 13.335 20.6606 13.3462L20.6617 13.347ZM4.56729 18.7733C3.87766 19.527 2.91014 19.812 2.49426 19.572C2.04801 19.3125 2.22426 18.2033 3.07515 17.4C3.59265 16.9125 4.25979 16.4625 4.70229 16.185C4.80354 16.125 4.94979 16.035 5.12979 15.9262C5.1598 15.9075 5.1748 15.9 5.1748 15.9C5.20855 15.8775 5.24605 15.8587 5.28355 15.8362C5.59443 16.9763 5.2948 17.9813 4.56729 18.7725V18.7733ZM9.60585 15.3457C9.36584 15.9345 8.85996 17.4345 8.55246 17.3558C8.28996 17.2883 8.12871 16.1445 8.49996 15.0195C8.68746 14.4532 9.08497 13.7782 9.32122 13.5157C9.6996 13.092 10.1159 12.957 10.2134 13.1257C10.3446 13.347 9.75585 14.9782 9.60585 15.3457ZM13.7684 17.3333C13.6671 17.3858 13.5734 17.4195 13.5284 17.3933C13.4946 17.3745 13.5696 17.3033 13.5696 17.3033C13.5696 17.3033 14.0909 16.7445 14.2972 16.4895C14.4172 16.3395 14.5559 16.1632 14.7055 15.9682C14.7055 15.987 14.7093 16.0057 14.7093 16.0282C14.7044 16.6995 14.0598 17.1533 13.7673 17.3333H13.7684ZM16.9777 16.602C16.9027 16.5495 16.9139 16.3732 17.1652 15.8257C17.2627 15.612 17.4873 15.252 17.8777 14.907C17.9219 15.0376 17.9459 15.1741 17.9489 15.312C17.9452 16.1557 17.3414 16.4707 16.9781 16.602H16.9777Z"/>
</svg>
