<svg preserveAspectRatio="none" viewBox="0 0 24 24" id="img" fill="currentColor" xmlns="http://www.w3.org/2000/svg">
<path d="M20.0333 4.65092C20.0259 4.59891 20.0006 4.55111 19.9618 4.51578C19.9229 4.48044 19.8729 4.45979 19.8204 4.45738C19.7237 4.45738 18.0191 4.41867 18.0191 4.41867C18.0191 4.41867 16.9735 3.4113 16.5859 3.02373V23.9613L22.6674 22.4517C22.6674 22.4517 20.0527 4.76704 20.0333 4.65092ZM15.2108 3.02373C15.1179 2.73069 15.0012 2.44572 14.8619 2.17168C14.3568 1.2035 13.603 0.678523 12.7117 0.678523C12.6466 0.676261 12.5815 0.682771 12.5182 0.697877C12.4988 0.659169 12.4601 0.639815 12.4408 0.601107C12.0537 0.176772 11.5505 -0.016767 10.9496 0.00113536C9.78832 0.0398432 8.62708 0.872062 7.69567 2.36377C7.03716 3.40985 6.53444 4.72688 6.39799 5.75361C5.06161 6.16004 4.13213 6.45083 4.11278 6.47018C3.43539 6.68308 3.41555 6.70243 3.33862 7.34111C3.28056 7.82496 1.5 21.4608 1.5 21.4608L16.1403 24V2.79149C16.069 2.79417 15.998 2.80063 15.9274 2.81084C15.9274 2.81084 15.6564 2.88826 15.2108 3.02373ZM12.538 3.85692C11.7639 4.08917 10.9108 4.36012 10.0781 4.61221C10.3104 3.70161 10.7754 2.79149 11.3178 2.19297C11.5307 1.98007 11.8214 1.72799 12.1505 1.57316C12.48 2.26845 12.5574 3.21776 12.538 3.85692ZM10.9496 0.796582C11.1935 0.788891 11.4349 0.848483 11.6473 0.968832C11.3376 1.12366 11.0275 1.37575 10.7371 1.66606C10.0012 2.46054 9.43946 3.69822 9.20722 4.88123C8.50951 5.0946 7.81228 5.3075 7.17505 5.50104C7.59891 3.64354 9.16754 0.83529 10.9496 0.796582ZM8.70305 11.4495C8.78046 12.6886 12.0537 12.96 12.2472 15.8844C12.3827 18.1895 11.027 19.7581 9.07077 19.8747C6.70814 20.0295 5.41046 18.6351 5.41046 18.6351L5.91366 16.5062C5.91366 16.5062 7.21134 17.4942 8.25742 17.4168C8.93481 17.3781 9.18738 16.8163 9.16754 16.4287C9.07077 14.802 6.39799 14.8988 6.22381 12.226C6.06898 9.97905 7.54084 7.71319 10.7947 7.49981C12.0527 7.4224 12.6929 7.73254 12.6929 7.73254L11.9569 10.5195C11.9569 10.5195 11.1242 10.1324 10.1362 10.2098C8.70305 10.3071 8.68369 11.2167 8.70305 11.4495ZM13.3127 3.62419C13.3127 3.04357 13.2353 2.21039 12.9638 1.51316C13.8551 1.68735 14.2808 2.6744 14.4749 3.27582C14.1262 3.37259 13.7388 3.48871 13.3127 3.62419Z"/>
</svg>
