<svg width="24" height="24" viewBox="0 0 24 24" fill="none" xmlns="http://www.w3.org/2000/svg">
<path fill-rule="evenodd" clip-rule="evenodd" d="M11.9998 0L14.5358 2.53592L17.9999 1.6077L18.9281 5.07177L22.3921 5.99994L21.464 9.46382L24 11.9998L21.4641 14.5358L22.3923 17.9999L18.9282 18.9282L17.9999 22.3923L14.5358 21.4641L11.9998 24L9.46382 21.464L5.99994 22.3921L5.07177 18.9281L1.6077 17.9999L2.53592 14.5358L0 11.9998L2.53601 9.46382L1.60787 5.99994L5.07179 5.07179L5.99994 1.60787L9.46382 2.53601L11.9998 0ZM20.3639 12.0002C20.3639 16.6193 16.6193 20.3639 12.0002 20.3639C7.38113 20.3639 3.63661 16.6193 3.63661 12.0002C3.63661 7.38113 7.38113 3.63661 12.0002 3.63661C16.6193 3.63661 20.3639 7.38113 20.3639 12.0002ZM12.005 18.6483C15.6761 18.6483 18.6522 15.6723 18.6522 12.0011C18.6522 8.32993 15.6761 5.35386 12.005 5.35386C8.3338 5.35386 5.35773 8.32993 5.35773 12.0011C5.35773 15.6723 8.3338 18.6483 12.005 18.6483Z" fill="black"/>
</svg>
