<svg preserveAspectRatio="none" viewBox="0 0 24 24" id="img" fill="currentColor" xmlns="http://www.w3.org/2000/svg">
<path d="M12.6235 4.29388L16.3788 6.48675C16.5138 6.56372 16.5187 6.77733 16.3788 6.8543L11.9166 9.46191C11.7816 9.54141 11.6221 9.53644 11.4969 9.46191L7.0348 6.8543C6.89736 6.77981 6.89493 6.56123 7.0348 6.48675L10.7876 4.29388V0L1.20557 5.59767V16.7931L4.87983 14.6474V10.2616C4.87737 10.1051 5.059 9.99337 5.194 10.0778L9.65614 12.6854C9.79114 12.7649 9.86722 12.9065 9.86722 13.053V18.2657C9.86966 18.4222 9.68802 18.534 9.55302 18.4495L5.79778 16.2566L2.12352 18.4023L11.7056 24L21.2876 18.4023L17.6134 16.2566L13.8581 18.4495C13.7256 18.5315 13.539 18.4247 13.5439 18.2657V13.053C13.5439 12.8965 13.6298 12.7575 13.755 12.6854L18.2172 10.0778C18.3497 9.99586 18.5362 10.1002 18.5313 10.2616V14.6474L22.2056 16.7931V5.59767L12.6235 0V4.29388Z"/>
</svg>
