<svg width="24" height="24" viewBox="0 0 24 24" fill="none" xmlns="http://www.w3.org/2000/svg">
<path d="M24 17.4506C24 21.0607 21.0661 23.9945 17.456 23.9945V22.3586C20.1827 22.3586 22.364 20.1772 22.364 17.4506H24ZM0.00545324 6.54397C0.00545324 2.93388 2.93933 0 6.54942 0V1.63599C3.82277 1.63599 1.64145 3.81731 1.64145 6.54397H0.00545324ZM7.64008 3.621L2.63395 8.63804C-0.877982 12.15 -0.877982 17.8541 2.63395 21.3661C6.14588 24.878 11.85 24.878 15.362 21.3661L23.0729 13.6333C23.6074 13.1207 23.6074 12.259 23.0729 11.7246C22.9463 11.5976 22.7959 11.4969 22.6302 11.4282C22.4646 11.3595 22.287 11.3241 22.1077 11.3241C21.9284 11.3241 21.7508 11.3595 21.5852 11.4282C21.4196 11.4969 21.2691 11.5976 21.1425 11.7246L16.3217 16.5453L15.5474 15.771L22.6803 8.63804C23.2147 8.10361 23.2147 7.24199 22.6803 6.70757C22.1459 6.17314 21.2733 6.17314 20.728 6.70757L14.3913 13.0879L13.6387 12.2918L21.1316 4.7771C21.666 4.24267 21.666 3.38105 21.1316 2.84663C20.5971 2.3122 19.7355 2.3122 19.2011 2.84663L11.6864 10.3613L10.9121 9.59782L16.9107 3.621C17.456 3.08657 17.456 2.22495 16.9107 1.69052C16.3654 1.1561 15.5147 1.1561 14.9802 1.69052L6.66939 10.0014C7.32013 10.8408 7.64256 11.8886 7.57631 12.9486C7.51006 14.0087 7.05967 15.0082 6.30948 15.7601L5.53511 14.9857C6.14784 14.3722 6.49201 13.5406 6.49201 12.6735C6.49201 11.8064 6.14784 10.9748 5.53511 10.3613L5.15337 9.97955L9.59237 5.54056C10.1268 5.00614 10.1268 4.14451 9.59237 3.61009C9.04704 3.08657 8.18541 3.08657 7.64008 3.621V3.621Z" fill="black"/>
</svg>
