<svg width="24" height="24" viewBox="0 0 24 24" id="img" fill="currentColor" xmlns="http://www.w3.org/2000/svg">
<path d="M17.797 8.62218C17.797 8.62218 15.8459 14.735 15.6992 15.2538C15.6429 14.735 14.2218 3.75 14.2218 3.75C10.8947 3.75 9.12406 6.10714 8.18797 8.62218C8.18797 8.62218 5.81955 14.7575 5.62782 15.2763C5.61654 14.7914 5.26692 8.68985 5.26692 8.68985C5.06391 5.62218 2.26692 3.76128 0 3.76128L2.72932 20.4079C6.21429 20.3966 8.08647 18.0395 9.06767 15.5357C9.06767 15.5357 11.1541 10.1222 11.2444 9.87406C11.2669 10.1109 12.7444 20.4079 12.7444 20.4079C16.2293 20.4079 18.1128 18.1974 19.1278 15.7838L24 3.75C20.5489 3.75 18.7331 6.10714 17.797 8.62218Z"/>
</svg>
