<svg width="360" height="350" viewBox="0 0 360 350" fill="none" xmlns="http://www.w3.org/2000/svg">
<g clip-path="url(#clip0_1296_1024)">
<mask id="mask0_1296_1024" style="mask-type:alpha" maskUnits="userSpaceOnUse" x="0" y="0" width="360" height="350">
<rect width="360" height="350" fill="#D9D9D9"/>
</mask>
<g mask="url(#mask0_1296_1024)">
<rect y="1" width="360" height="353" fill="#A09BD0"/>
<rect width="30" height="354" fill="#7E78A5"/>
<rect x="335" width="25" height="354" fill="#7E78A5"/>
<path d="M334.537 24.0159H30.3775L-67 0.2047L427 0.129822L334.537 24.0159Z" fill="#232946"/>
<path d="M334.666 259H30.2482L-67 354H427L334.666 259Z" fill="#DD6C87"/>
<path d="M300.656 273H72.0346L-1 354H370L300.656 273Z" fill="#C24A5D"/>
<mask id="mask1_1296_1024" style="mask-type:alpha" maskUnits="userSpaceOnUse" x="117" y="49" width="81" height="119">
<path d="M197.198 167.623V94.3653C197.198 67.9924 179.275 49.6467 157.166 49.6467C135.057 49.6467 117.134 67.9924 117.134 94.3653V167.623H197.198Z" fill="black"/>
</mask>
<g mask="url(#mask1_1296_1024)">
<path d="M197.198 167.623V94.3653C197.198 67.9924 179.275 49.6467 157.166 49.6467C135.057 49.6467 117.134 67.9924 117.134 94.3653V167.623H197.198Z" fill="#121629"/>
<path d="M131 91.57C131 105.062 142.168 116 155.943 116C166.343 116 175.255 109.767 179 100.908C157.909 106.984 138.288 84.2986 149.36 68C138.779 70.8285 131 80.3096 131 91.57Z" fill="#EFE0D5"/>
<path d="M181.14 148.908C181.585 147.629 183.415 147.629 183.86 148.908V148.908C184.053 149.46 184.576 149.837 185.16 149.837H185.323C186.627 149.837 187.145 151.524 186.066 152.256V152.256C185.57 152.592 185.363 153.224 185.56 153.79V153.79C185.988 155.021 184.607 156.103 183.529 155.372L183.309 155.222C182.82 154.891 182.18 154.891 181.691 155.222L181.471 155.372C180.393 156.103 179.012 155.021 179.44 153.79V153.79C179.637 153.224 179.43 152.592 178.934 152.256V152.256C177.855 151.524 178.373 149.837 179.677 149.837H179.84C180.424 149.837 180.947 149.46 181.14 148.908V148.908Z" fill="#EEBBC3"/>
<path d="M128.729 123.913C129.129 122.681 130.871 122.681 131.271 123.913V123.913C131.45 124.464 131.964 124.837 132.543 124.837V124.837C133.838 124.837 134.376 126.494 133.329 127.255V127.255C132.86 127.596 132.664 128.199 132.843 128.75V128.75C133.243 129.982 131.834 131.006 130.786 130.245V130.245C130.317 129.904 129.683 129.904 129.214 130.245V130.245C128.166 131.006 126.757 129.982 127.157 128.75V128.75C127.336 128.199 127.14 127.596 126.671 127.255V127.255C125.624 126.494 126.162 124.837 127.457 124.837V124.837C128.036 124.837 128.55 124.464 128.729 123.913V123.913Z" fill="#EEBBC3"/>
<path d="M169.729 54.9131C170.129 53.6814 171.871 53.6814 172.271 54.9131V54.9131C172.45 55.4639 172.964 55.8369 173.543 55.8369V55.8369C174.838 55.8369 175.376 57.4941 174.329 58.2553V58.2553C173.86 58.5958 173.664 59.1992 173.843 59.75V59.75C174.243 60.9817 172.834 62.0059 171.786 61.2447V61.2447C171.317 60.9042 170.683 60.9042 170.214 61.2447V61.2447C169.166 62.0059 167.757 60.9817 168.157 59.75V59.75C168.336 59.1992 168.14 58.5958 167.671 58.2553V58.2553C166.624 57.4941 167.162 55.8369 168.457 55.8369V55.8369C169.036 55.8369 169.55 55.4639 169.729 54.9131V54.9131Z" fill="#EEBBC3"/>
</g>
<path fill-rule="evenodd" clip-rule="evenodd" d="M202.339 92.6588V172.784H112.237V92.6588C112.237 63.8135 132.407 43.7478 157.288 43.7478C182.169 43.7478 202.339 63.8135 202.339 92.6588ZM197.198 94.3653V167.623H117.134V94.3653C117.134 67.9924 135.057 49.6466 157.166 49.6466C179.275 49.6466 197.198 67.9924 197.198 94.3653Z" fill="#7A68AC"/>
<rect x="197.198" y="91.6757" width="5.16147" height="80.0642" transform="rotate(90 197.198 91.6757)" fill="#7A68AC"/>
<rect x="197.198" y="128.789" width="5.16147" height="80.0642" transform="rotate(90 197.198 128.789)" fill="#7A68AC"/>
<rect x="154.595" y="47.9261" width="5.14174" height="123.138" rx="2.57087" fill="#7A68AC"/>
<rect x="197.846" y="217.96" width="96.2136" height="32.1942" fill="#3C2B60"/>
<rect x="313.458" y="215.104" width="86.4571" height="4.13821" rx="2.06911" transform="rotate(90 313.458 215.104)" fill="#493779"/>
<rect x="200.95" y="187.064" width="86.4571" height="4.13821" rx="2.06911" transform="rotate(90 200.95 187.064)" fill="#493779"/>
<rect x="298.198" y="187.064" width="86.4571" height="4.13821" rx="2.06911" transform="rotate(90 298.198 187.064)" fill="#493779"/>
<rect width="15.5919" height="2.59445" rx="1.29722" transform="matrix(-0.90063 0.434588 -0.431893 -0.901925 200.077 224.974)" fill="#493779"/>
<rect width="15.5919" height="2.59445" rx="1.29722" transform="matrix(0.90063 0.434587 0.431893 -0.901925 295.094 223.935)" fill="#493779"/>
<rect x="185.431" y="229.384" width="128.026" height="3.89447" rx="1.94724" fill="#493779"/>
<rect x="287.076" y="222.634" width="36.468" height="35.8291" fill="#493779"/>
<rect x="188.276" y="215.104" width="86.4571" height="4.13823" rx="2.06911" transform="rotate(90 188.276 215.104)" fill="#493779"/>
<rect x="289.146" y="224.711" width="32.0712" height="15.0586" rx="2" fill="#B6A3DD"/>
<rect x="289.146" y="241.587" width="32.0712" height="14.799" rx="2" fill="#B6A3DD"/>
<rect x="298.715" y="231.201" width="13.9665" height="2.07706" rx="1.03853" fill="#3C2B60"/>
<rect x="298.715" y="247.818" width="13.9665" height="2.07706" rx="1.03853" fill="#3C2B60"/>
<path d="M193.437 185.506H305.35L324.579 212.248H178.707L193.437 185.506Z" fill="#9483C2"/>
<rect x="178.707" y="211.469" width="145.872" height="6.75041" rx="2" fill="#493779"/>
<rect x="210.519" y="138.253" width="74.4879" height="45.1758" rx="2" fill="#121629"/>
<rect width="7.75919" height="3.63484" transform="matrix(1 0 0 -1 243.884 187.064)" fill="#121629"/>
<path d="M235.332 187.548C234.957 188.721 235.832 189.92 237.063 189.92H257.515C258.795 189.92 259.674 188.632 259.208 187.44V187.44C258.935 186.744 258.263 186.285 257.515 186.285H237.063C236.273 186.285 235.573 186.796 235.332 187.548V187.548Z" fill="#121629"/>
<path d="M215.458 196.057C216.068 194.545 217.536 193.555 219.167 193.555H270.878C272.335 193.555 273.676 194.347 274.38 195.622L275.267 197.228C276.738 199.894 274.81 203.161 271.765 203.161H218.518C215.682 203.161 213.747 200.293 214.809 197.663L215.458 196.057Z" fill="#B6A3DD"/>
<path d="M279.736 199.575C278.176 196.908 280.099 193.555 283.188 193.555H292.668C293.969 193.555 295.188 194.187 295.937 195.25L296.338 195.817C298.206 198.467 296.311 202.123 293.069 202.123H283.521C282.1 202.123 280.786 201.369 280.068 200.143L279.736 199.575Z" fill="#6960A0"/>
<path d="M285.45 193.37C286.038 192.965 286.777 192.846 287.464 193.046L290.43 193.911C292.206 194.429 293.007 196.499 292.042 198.079V198.079C291.235 199.402 289.51 199.816 288.191 199.004L285.556 197.383C284.083 196.476 284.026 194.35 285.45 193.37V193.37Z" fill="#B6A3DD"/>
<ellipse cx="94.2278" cy="288.769" rx="2.60378" ry="2.61378" fill="#2E164B"/>
<ellipse cx="124.103" cy="289.87" rx="2.60379" ry="2.61377" fill="#2E164B"/>
<rect x="87.5128" y="229.478" width="7.40024" height="25.8626" fill="#2E164B"/>
<rect width="4.28557" height="17.5182" rx="2.14279" transform="matrix(0.633015 0.77414 -0.90145 0.432883 123.544 286.305)" fill="#2E164B"/>
<rect width="4.4341" height="15.3215" rx="2.21705" transform="matrix(-0.730696 0.682703 -0.846647 -0.532155 108.029 293.569)" fill="#2E164B"/>
<ellipse cx="3.56347" cy="3.57635" rx="3.56347" ry="3.57635" transform="matrix(0.985521 -0.169551 0.168294 0.985737 85.8683 316.253)" fill="#2E164B"/>
<ellipse cx="3.56337" cy="3.57646" rx="3.56337" ry="3.57646" transform="matrix(0.989335 0.145659 -0.144572 0.989494 124.178 313.944)" fill="#2E164B"/>
<ellipse cx="84.3609" cy="299.775" rx="3.15195" ry="3.16405" fill="#2E164B"/>
<ellipse cx="131.777" cy="300.6" rx="3.15195" ry="3.16403" fill="#2E164B"/>
<rect x="118.21" y="231.954" width="7.40022" height="25.8626" fill="#2E164B"/>
<path d="M107.521 230.854C107.521 226.599 110.97 223.15 115.225 223.15H137.861C141.287 223.318 150.278 227.277 150.278 232.917C150.278 238.557 142.898 238.557 142.898 238.557C142.898 238.557 142.898 238.557 142.898 238.557H115.225C110.97 238.557 107.521 235.108 107.521 230.854V230.854Z" fill="#7A68AC"/>
<path d="M112.728 286.494V278.025C112.728 275.981 111.072 274.325 109.028 274.325C106.985 274.325 105.328 275.981 105.328 278.025V285.427C105.328 291.462 100.376 296.321 94.3426 296.208L86.1246 296.053C84.7085 296.026 83.539 297.153 83.5125 298.569C83.486 299.985 84.6122 301.154 86.0281 301.181L130.374 302.016C131.79 302.043 132.96 300.916 132.986 299.5C133.013 298.084 131.886 296.915 130.47 296.888L122.786 296.744C117.201 296.638 112.728 292.081 112.728 286.494Z" fill="#2E164B"/>
<rect width="5.60198" height="28.4134" rx="2.80099" transform="matrix(0.754553 0.656239 -0.674846 0.737959 103.971 296.093)" fill="#2E164B"/>
<rect width="5.67573" height="27.6397" rx="2.83786" transform="matrix(-0.738377 0.674388 -0.671569 -0.740942 131.871 316.193)" fill="#2E164B"/>
<path d="M62.7775 204.74C64.3268 190.481 76.3668 179.679 90.709 179.679V179.679C103.979 179.679 115.44 188.963 118.193 201.944L118.377 202.809C122.103 220.372 108.708 236.907 90.7542 236.907V236.907C73.9517 236.907 60.8669 222.323 62.682 205.619L62.7775 204.74Z" fill="#7A68AC"/>
<path d="M86.5906 199.266C86.9406 193.821 91.4591 189.583 96.9154 189.583V189.583C102.131 189.583 106.531 193.466 107.181 198.641L109.139 214.241C110.026 221.308 104.517 227.552 97.3943 227.552V227.552C90.5582 227.552 85.1432 221.778 85.5818 214.956L86.5906 199.266Z" fill="#493779"/>
<path d="M89.0871 199.812C89.3428 195.307 93.0707 191.785 97.5832 191.785V191.785C101.92 191.785 105.564 195.046 106.041 199.357L107.941 216.502C108.594 222.397 103.979 227.552 98.0476 227.552V227.552C92.3286 227.552 87.7857 222.744 88.1097 217.034L89.0871 199.812Z" fill="#7A68AC"/>
<rect x="72.7124" y="250.388" width="77.5654" height="27.7886" rx="13.8943" fill="#7A68AC"/>
<rect x="91.0759" y="255.891" width="42.7569" height="7.9789" rx="3.98945" fill="#493779"/>
<rect x="94.9131" y="255.891" width="38.9198" height="6.60323" rx="3.30161" fill="#7A68AC"/>
<ellipse cx="99.4354" cy="208.705" rx="2.3297" ry="2.33865" fill="#493779"/>
<ellipse cx="99.9836" cy="208.155" rx="1.78153" ry="1.78838" fill="#7A68AC"/>
<path d="M191.441 280.087C193.899 277.238 198.332 277.336 200.662 280.29L207.59 289.074C209.054 290.931 208.786 293.618 206.985 295.147V295.147C205.468 296.435 203.275 296.532 201.649 295.384L192.522 288.936C189.624 286.889 189.122 282.776 191.441 280.087V280.087Z" fill="#CA8974"/>
<path fill-rule="evenodd" clip-rule="evenodd" d="M143.075 225.081C133.165 218.796 120.012 223.097 115.733 234.021C111.681 244.365 117.476 255.963 128.174 258.924L160.253 267.804C163.031 268.573 165.884 268.431 168.459 267.523L192.12 289.616C194.345 291.694 197.692 291.992 200.249 290.34C203.506 288.235 204.291 283.794 201.954 280.696L177.16 247.826C176.177 246.522 174.954 245.528 173.607 244.85C172.895 244.134 172.094 243.487 171.208 242.924L143.075 225.081Z" fill="#151620"/>
<path d="M135.831 285.985C139.288 288.956 139.2 294.352 135.647 297.208L125.083 305.7C122.851 307.494 119.603 307.186 117.745 305.004V305.004C116.179 303.166 116.046 300.498 117.422 298.512L125.15 287.358C127.603 283.818 132.567 283.179 135.831 285.985V285.985Z" fill="#CA8974"/>
<path fill-rule="evenodd" clip-rule="evenodd" d="M130.151 232.316C118.443 228.559 106.223 236.392 104.75 248.598C103.355 260.157 112.285 270.387 123.922 270.562L137.875 270.773L124.168 288.122C122.038 290.818 122.003 294.621 124.083 297.355C126.718 300.82 131.726 301.317 134.985 298.437L168.241 269.046C170.072 267.428 171.251 265.378 171.788 263.202C172.209 262.369 172.553 261.486 172.811 260.561C174.887 253.101 170.694 245.327 163.32 242.961L130.151 232.316Z" fill="#151620"/>
<path d="M111.219 310.01C114.665 307.66 119.337 308.392 121.908 311.686L130.85 323.139C132.651 325.447 132.681 328.682 130.922 331.02V331.02C128.695 333.98 124.447 334.453 121.624 332.055L110.559 322.655C106.558 319.256 106.887 312.966 111.219 310.01V310.01Z" fill="#7C3737"/>
<rect width="10.6808" height="4.48609" rx="2.24305" transform="matrix(0.762102 0.647457 -0.644575 0.764541 113.815 299.526)" fill="#7C3737"/>
<path fill-rule="evenodd" clip-rule="evenodd" d="M117.443 310.129C117.024 307.569 116.174 305.166 114.91 302.537C114.299 301.266 112.611 301.092 111.715 302.17L103.96 311.492C103.254 312.341 103.36 313.614 104.197 314.335L113.761 322.57C114.137 322.893 114.58 323.045 115.015 323.049L119.594 326.993C119.884 329.092 120.986 331.191 122.822 332.772C126.428 335.876 131.499 335.811 134.149 332.625C136.799 329.439 136.024 324.34 132.418 321.235C129.988 319.143 126.892 318.491 124.32 319.263L117.443 310.129Z" fill="#C97070"/>
<path d="M103.263 312.33L129.721 335.112V335.112C128.597 336.463 126.605 336.629 125.273 335.482L103.64 316.854C102.307 315.707 102.139 313.682 103.263 312.33V312.33Z" fill="#191932"/>
<path d="M116.877 298.361C117.589 297.49 118.968 297.736 119.389 298.782C120.494 301.523 121.647 303.203 124.486 304.279C125.332 304.599 125.659 305.691 125.036 306.348L124.832 306.563C121.858 309.698 116.623 308.484 115.316 304.357V304.357C114.735 302.519 115.119 300.511 116.337 299.021L116.877 298.361Z" fill="#191932"/>
<path d="M118.669 306.671C119.644 305.081 121.776 304.684 123.259 305.818V305.818C124.615 306.855 124.905 308.785 123.912 310.173L123.738 310.416C122.884 311.609 121.321 312.049 119.971 311.478V311.478C118.198 310.728 117.506 308.569 118.513 306.927L118.544 306.876L118.669 306.671Z" fill="#C97070"/>
<path d="M211.727 303.005C209.811 299.588 210.86 295.265 214.127 293.115L225.502 285.627C227.791 284.12 230.804 284.349 232.842 286.184V286.184C235.422 288.506 235.528 292.527 233.074 294.984L223.444 304.627C219.965 308.111 214.136 307.304 211.727 303.005V303.005Z" fill="#7C3737"/>
<rect width="10.0198" height="4.20584" rx="2.10292" transform="matrix(0.706636 -0.707577 0.704864 0.709343 202.172 299.744)" fill="#7C3737"/>
<path fill-rule="evenodd" clip-rule="evenodd" d="M212.33 297.178C209.966 297.365 207.71 297.95 205.23 298.891C203.915 299.39 203.602 301.063 204.596 302.05L212.445 309.845C213.229 310.623 214.501 310.625 215.287 309.849L223.478 301.755C223.818 301.418 224.005 301.006 224.054 300.587L228.198 296.491C230.176 296.386 232.216 295.518 233.833 293.92C237.008 290.783 237.347 286.021 234.591 283.283C231.834 280.546 227.026 280.87 223.851 284.007C221.711 286.122 220.86 288.974 221.376 291.448L212.33 297.178Z" fill="#C97070"/>
<path d="M213.259 310.654L236.556 287.633V287.633C237.725 288.794 237.723 290.675 236.551 291.833L217.499 310.659C216.327 311.817 214.429 311.815 213.259 310.654V310.654Z" fill="#191932"/>
<path d="M201.33 296.78C200.575 296.042 200.913 294.769 201.919 294.457C204.558 293.636 206.214 292.687 207.44 290.109C207.805 289.341 208.847 289.12 209.409 289.757L209.592 289.964C212.277 293.002 210.734 297.817 206.789 298.717V298.717C205.032 299.118 203.192 298.598 201.9 297.337L201.33 296.78Z" fill="#191932"/>
<path d="M209.214 295.76C207.807 294.717 207.603 292.684 208.775 291.383V291.383C209.848 290.192 211.671 290.075 212.889 291.12L213.088 291.291C214.134 292.188 214.423 293.692 213.785 294.913V294.913C212.947 296.518 210.879 296.994 209.425 295.916L209.388 295.889L209.214 295.76Z" fill="#C97070"/>
<rect x="85.0461" y="247.637" width="7.40024" height="34.3918" rx="3.70012" fill="#2E164B"/>
<path d="M74.3568 249.15C74.3568 244.364 78.2371 240.483 83.0236 240.483H107.808C111.586 240.673 121.499 245.126 121.499 251.472C121.499 257.817 113.362 257.817 113.362 257.817C113.362 257.817 113.362 257.817 113.362 257.817H83.0236C78.2371 257.817 74.3568 253.937 74.3568 249.15V249.15Z" fill="#7A68AC"/>
<rect x="117.124" y="135.657" width="32.8899" height="61.3549" rx="16.445" fill="#090F01"/>
<path d="M130.28 170.599H146.314C146.314 170.599 141.855 176.649 143.71 179.954C147.958 187.52 153.166 200.864 153.166 200.864L130.28 200.589C130.28 200.589 131.788 187.245 133.432 184.356C135.395 180.908 130.28 170.599 130.28 170.599Z" fill="#D18C77"/>
<path d="M154.532 184.208C168.892 165.577 161.571 157.346 148.963 148.379V180.195L154.532 184.208Z" fill="#090F01"/>
<path d="M138.503 176.515C134.874 176.515 133.653 175.434 131.102 171.7L144.807 172.65C143.616 175.307 140.421 176.515 138.503 176.515Z" fill="#A06760"/>
<path fill-rule="evenodd" clip-rule="evenodd" d="M135.724 141.727C129.208 142.186 124.097 147.503 123.896 154.032L123.811 156.792C123.389 156.646 122.938 156.567 122.469 156.567C120.123 156.567 118.22 158.538 118.22 160.969C118.22 163.401 120.123 165.372 122.469 165.372C123.386 165.372 124.235 165.071 124.929 164.559C126.53 168.356 129.673 171.422 133.739 172.854L135.462 173.46C139.384 174.842 143.745 174.046 146.927 171.368C149.579 169.136 151.11 165.847 151.11 162.38V161.319C151.11 159.543 150.773 157.783 150.115 156.133L150.062 156.001C149.666 155.007 149.394 153.951 149.255 152.89C148.381 146.213 142.442 141.254 135.724 141.727Z" fill="#D5927D"/>
<path d="M136.166 157.486C135.992 158.661 133.432 159.044 131.377 158.906C128.991 158.549 127.228 158.43 127.402 157.255C127.128 155.88 129.402 154.009 131.788 154.366C134.173 154.723 136.341 156.312 136.166 157.486Z" fill="#B66459"/>
<path d="M148.479 156.69C148.644 157.802 147.94 158.151 146.725 158.493C145.51 158.836 144.664 159.195 143.73 158.235C143.261 157.041 144.147 154.816 145.602 154.598C147.056 154.38 148.314 155.577 148.479 156.69Z" fill="#B66459"/>
<path d="M139.051 191.922C135.286 189.054 134.913 189.068 133.432 184.494C133.217 189.989 133.272 193.056 139.051 198.113L140.969 199.213L142.888 196.324C146.954 186.547 145.628 184.227 143.573 179.816C142.733 185.619 141.258 186.654 139.051 191.922Z" fill="#A06760"/>
<path d="M142.888 195.774L140.969 198.938L137.543 197.425V195.774C134.465 191.015 132.204 188.07 133.295 185.456C134.6 182.259 134.588 181.304 134.254 179.954C123.025 181.671 118.513 182.885 112.191 185.869C108.576 190.206 106.704 196.469 103.557 212.42L104.653 215.996L102.324 218.197C101.307 223.988 99.7184 226.515 96.8421 230.991C97.107 232.946 97.7564 234.438 102.324 239.795L109.45 238.833C113.22 237.798 114.757 236.964 116.713 235.118L118.221 233.192C127.941 236.378 133.172 236.658 142.203 235.118L145.629 236.219C149.978 233.344 151.806 231.712 154.674 228.79V216.684C157.02 217.936 158.514 219.181 161.663 222.875C165.94 223.244 168.182 223.583 171.118 225.076C175.079 220.913 177.373 218.683 178.656 210.769C174.168 203.767 171.862 201.667 167.692 197.425C166.151 190.511 164.105 188.473 158.648 187.658C152.977 178.916 150.401 178.175 146.314 180.366L143.71 179.954C144.218 182.238 144.877 183.408 146.177 185.456C146.69 186.113 144.438 189.638 142.203 193.71L142.888 195.774Z" fill="#E1CBB1"/>
<path d="M141.655 228.102C137.132 227.223 128.088 213.52 128.088 213.52C132.709 222.77 140.695 231.266 142.888 231.266C145.081 231.266 142.888 226.589 142.888 226.589C142.888 226.589 142.401 228.247 141.655 228.102Z" fill="#C9A57B"/>
<mask id="mask2_1296_1024" style="mask-type:alpha" maskUnits="userSpaceOnUse" x="128" y="155" width="9" height="5">
<path d="M136.031 157.985C136.031 159.12 134.298 159.024 132.154 159.024C130.01 159.024 128.272 158.86 128.272 157.726C128.272 156.591 130.01 155.389 132.154 155.389C134.298 155.389 136.031 156.851 136.031 157.985Z" fill="#D0D6CD"/>
</mask>
<g mask="url(#mask2_1296_1024)">
<ellipse cx="132.54" cy="157.596" rx="4.26754" ry="2.20686" fill="#D0D6CD"/>
<ellipse cx="132.288" cy="156.883" rx="2.14169" ry="2.61419" fill="#170F03"/>
<ellipse cx="134.286" cy="156.658" rx="0.401566" ry="0.315422" fill="white"/>
</g>
<path d="M128.25 157.446L127.265 157.028" stroke="black" stroke-width="0.5" stroke-linecap="round"/>
<path d="M128.852 156.427L128.088 155.744" stroke="black" stroke-width="0.5" stroke-linecap="round"/>
<path d="M148.119 156.193L148.764 155.467" stroke="black" stroke-width="0.5" stroke-linecap="round"/>
<path d="M148.678 156.841L149.466 156.567" stroke="black" stroke-width="0.5" stroke-linecap="round"/>
<mask id="mask3_1296_1024" style="mask-type:alpha" maskUnits="userSpaceOnUse" x="143" y="155" width="6" height="5">
<path d="M148.546 156.931C148.818 157.839 148.073 158.433 146.821 158.811C145.569 159.189 144.285 159.208 144.012 158.3C143.74 157.393 144.534 156.35 145.786 155.972C147.038 155.594 148.273 156.023 148.546 156.931Z" fill="#D0D6CD"/>
</mask>
<g mask="url(#mask3_1296_1024)">
<ellipse cx="2.36785" cy="1.71614" rx="2.36785" ry="1.71614" transform="matrix(0.957269 -0.289199 0.287174 0.957878 143.52 156.657)" fill="#D0D6CD"/>
<ellipse cx="1.74238" cy="1.98174" rx="1.74238" ry="1.98174" transform="matrix(0.957269 -0.289199 0.287174 0.957878 143.51 155.681)" fill="#170F03"/>
<ellipse cx="0.421978" cy="0.309545" rx="0.421978" ry="0.309545" transform="matrix(0.999489 0.0319525 0.028928 0.999581 147.024 156.499)" fill="white"/>
</g>
<path d="M136.036 157.722C133.741 153.426 126.99 156.235 128.61 158.218" stroke="black" stroke-width="0.5" stroke-linecap="round"/>
<path d="M148.88 157.12C147.046 154.211 143.392 156.585 144.087 158.427" stroke="black" stroke-width="0.5" stroke-linecap="round"/>
<path d="M122.195 156.43L124.798 147.213C126.169 136.345 145.766 137.858 145.766 145.837C142.888 143.774 132.062 143.223 128.499 146.387V145.424L127.676 147.213H126.306L126.854 147.901C124.177 149.414 129.732 157.255 123.017 161.52C123.381 159.183 123.524 157.904 122.195 156.43Z" fill="#090F01"/>
<path d="M118.083 140.472C120.115 140.63 120.632 141.445 120.961 143.361L122.606 140.982C120.679 139.372 119.18 140.197 118.083 140.472Z" fill="#090F01"/>
<path d="M136.844 152.939L128.597 153.161C130.38 152.106 134.642 150.812 135.779 151.208C136.427 151.434 136.799 151.979 136.844 152.939Z" fill="#090F01"/>
<path d="M143.324 152.94L147.908 152.5C146.844 151.485 144.435 150.895 143.82 151.276C143.469 151.493 143.292 152.017 143.324 152.94Z" fill="#090F01"/>
<path d="M136.173 165.372C137.023 165.824 137.462 165.845 138.229 165.784M142.751 165.509C143.585 165.342 143.9 165.149 144.258 164.684" stroke="black" stroke-width="0.5" stroke-linecap="round"/>
<path d="M141.108 199.351L138.779 198.113C136.28 200.679 136.821 203.158 137.682 207.88C135.42 212.445 135.481 215.056 135.49 219.711H138.779C138.547 214.725 139.027 212.127 141.108 207.88C139.392 204.549 139.535 202.681 141.108 199.351Z" fill="#C9A57B"/>
<path d="M140.695 199.131L138.31 197.838C135.75 200.518 136.305 203.108 137.187 208.04C134.87 212.809 134.933 215.537 134.941 220.399H138.31C138.073 215.191 138.564 212.477 140.695 208.04C138.938 204.561 139.085 202.61 140.695 199.131Z" fill="#E1CBB1"/>
<path d="M127.813 189.111C129.188 196.096 132.968 197.988 135.03 202.79C138.503 202.102 137.68 197.15 139.736 198.388C140.039 197.953 138.927 195.564 139.462 195.224L139.439 195.202C134.646 190.562 133.14 189.104 133.483 185.181C130.865 185.293 129.715 186.475 127.813 189.111Z" fill="#C9A57B"/>
<path d="M135.304 201.414C137.881 200.125 136.85 196.83 139.599 195.111C134.788 190.527 133.414 187.949 133.757 184.081C131.139 184.191 129.989 185.354 128.088 187.949C129.462 194.825 133.242 196.687 135.304 201.414Z" fill="#E1CBB1"/>
<path d="M112.602 185.869C107.532 180.996 107.111 176.639 111.78 164.821L117.398 152.303C116.165 164.134 121.616 169.948 131.239 173.213C135.02 179.799 136.038 182.998 130.965 186.695C130.866 194.864 130.397 199.13 124.524 202.927C124.068 194.772 121.795 190.919 112.602 185.869Z" fill="#090F01"/>
<path d="M149.055 182.568C151.11 192.472 148.085 192.807 148.507 197.7C145.099 198.682 144.041 194.222 142.796 196.164C142.323 195.94 141.742 193.478 141.106 193.435C143.195 187.436 145.859 182.913 143.71 179.816C146.088 178.74 146.129 181.237 149.055 182.568Z" fill="#C9A57B"/>
<path d="M148.048 196.741C145.116 196.845 144.396 193.609 141.106 193.435C143.3 187.46 144.807 182.843 143.436 179.679C145.852 178.581 145.312 181.045 148.247 182.328C150.232 188.639 147.692 191.895 148.048 196.741Z" fill="#E1CBB1"/>
<path d="M162.524 211.7L163.308 209.713C165.715 203.616 173.824 202.42 177.888 207.564C179.984 210.217 180.309 213.859 178.716 216.841L177.709 218.725C175.34 223.159 169.627 224.524 165.51 221.639C162.336 219.415 161.101 215.305 162.524 211.7Z" fill="#E1CBB1"/>
<path d="M166.868 215.538L166.104 214.453C165.166 213.12 164.884 211.433 165.337 209.868C166.677 205.245 172.954 204.584 175.227 208.827L175.854 209.997C176.473 211.154 176.641 212.499 176.324 213.772C175.229 218.168 169.475 219.243 166.868 215.538Z" fill="#C9A57B"/>
<path d="M165.224 209.734L173.159 183.42C173.763 181.415 175.866 180.271 177.878 180.853C179.751 181.395 180.921 183.259 180.593 185.182L175.983 212.284C175.143 217.222 168.706 218.588 165.923 214.418C165.002 213.039 164.746 211.32 165.224 209.734Z" fill="#D18C77"/>
<path d="M113.367 239.229L103.325 240.158C99.003 240.558 96.1892 235.721 98.672 232.16C99.8118 230.525 101.799 229.704 103.76 230.056L113.686 231.838C115.73 232.205 117.081 234.17 116.691 236.21C116.38 237.845 115.024 239.076 113.367 239.229Z" fill="#E1CBB1"/>
<path d="M109.355 237.512L103.383 237.512C101.488 237.511 100.486 235.266 101.753 233.857C102.276 233.275 103.069 233.017 103.834 233.178L109.678 234.413C110.14 234.511 110.534 234.813 110.749 235.234C111.282 236.276 110.525 237.512 109.355 237.512Z" fill="#C9A57B"/>
<path fill-rule="evenodd" clip-rule="evenodd" d="M108.805 234.158L103.631 233.076C103.184 232.982 102.731 233.203 102.529 233.613L97.9221 242.968C97.893 243.027 97.8703 243.086 97.8535 243.146L97.3286 243.91C97.1881 244.115 97.1256 244.331 97.1337 244.535C97.1222 244.602 97.1161 244.672 97.1161 244.743V248.88C97.1161 249.561 97.6683 250.113 98.3495 250.113C99.0307 250.113 99.5829 249.561 99.5829 248.88V244.869C99.6098 244.836 99.6352 244.803 99.659 244.768L100.137 244.072C100.381 243.997 100.621 243.926 100.857 243.857L100.508 244.94C100.449 245.123 100.437 245.302 100.465 245.468V250.264C100.465 250.945 101.017 251.498 101.698 251.498C102.379 251.498 102.932 250.945 102.932 250.264V245.319L102.936 245.305L103.63 243.154C104.074 243.06 104.514 242.976 104.955 242.902L104.318 244.979C104.282 245.096 104.265 245.212 104.267 245.324C104.251 245.403 104.242 245.485 104.242 245.569V250.806C104.242 251.487 104.795 252.039 105.476 252.039C106.157 252.039 106.709 251.487 106.709 250.806V245.569C106.709 245.481 106.7 245.396 106.683 245.314L107.523 242.576C107.884 242.545 108.251 242.518 108.628 242.496L109.343 244.005C109.374 244.07 109.41 244.132 109.45 244.19V248.88C109.45 249.561 110.002 250.113 110.683 250.113C111.364 250.113 111.917 249.561 111.917 248.88V243.918C111.917 243.875 111.914 243.832 111.91 243.791C111.913 243.621 111.875 243.444 111.793 243.27L110.869 241.322C110.865 241.292 110.861 241.261 110.854 241.231L110.348 238.727L110.755 238.989C110.787 239.01 110.821 239.03 110.855 239.048L113.213 242.108C113.693 242.731 114.585 242.845 115.206 242.363C115.827 241.88 115.942 240.985 115.462 240.362L112.907 237.046C112.87 236.997 112.83 236.952 112.787 236.91C112.677 236.744 112.532 236.599 112.355 236.484L109.559 234.684C109.526 234.664 109.494 234.644 109.46 234.626C109.32 234.389 109.084 234.216 108.805 234.158Z" fill="#D18C77"/>
<path fill-rule="evenodd" clip-rule="evenodd" d="M187.763 164.37C187.233 164.01 186.513 164.149 186.154 164.68L181.335 171.831L180.754 171.298L184.765 165.346C185.104 164.844 184.972 164.16 184.47 163.82C183.969 163.479 183.288 163.61 182.949 164.113L177.637 171.994L177.638 171.994L176.089 174.292L176.327 170.571C176.382 169.723 175.737 169.034 174.887 169.032C174.037 169.031 173.304 169.717 173.25 170.565L172.604 180.622C172.55 181.47 173.195 182.159 174.045 182.161C174.23 182.161 174.41 182.129 174.579 182.069C174.981 182.767 175.543 183.386 176.253 183.869C178.761 185.571 182.166 184.914 183.86 182.401L186.718 178.161L186.718 178.161L190.296 172.852C190.592 172.413 190.477 171.814 190.038 171.516C189.599 171.218 189.003 171.333 188.707 171.773L185.865 175.989L185.246 175.422L189.377 169.293C189.728 168.773 189.591 168.065 189.072 167.713C188.554 167.361 187.849 167.497 187.498 168.017L183.555 173.868L183.064 173.418L188.074 165.984C188.432 165.452 188.293 164.73 187.763 164.37Z" fill="#D18C77"/>
<path d="M173.722 181.742L180.437 185.594L180.3 185.869C180.3 185.869 177.981 187.27 177.011 187.245C174.84 187.188 173.585 182.155 173.585 182.155L173.722 181.742Z" fill="#A06760"/>
<path d="M175.778 175.277L178.026 180.553C179.051 179.744 179.583 179.281 179.779 178.297C180.026 176.707 176.052 174.864 176.052 174.864L175.778 175.277Z" fill="#A06760"/>
<path d="M153.988 199.901L154.399 216.271L157.963 215.446L156.181 212.282L159.196 208.43L153.988 199.901Z" fill="#C9A57B"/>
<path d="M163.581 194.536L158.511 187.933L161.526 189.583L163.581 194.536Z" fill="#C9A57B"/>
<path d="M118.769 216.684L118.084 232.917L120.139 221.224L125.621 214.896L117.124 200.451L121.647 212.144L118.769 216.684Z" fill="#C9A57B"/>
<path d="M152.207 210.494L142.34 214.378L148.412 214.896L152.207 210.494Z" fill="#C9A57B"/>
<rect x="256.816" y="111.252" width="11.8974" height="11.1641" fill="#DD6C87"/>
<rect x="234.831" y="122.156" width="11.8974" height="11.1641" fill="#DD6C87"/>
<rect x="264.058" y="115.146" width="11.8974" height="11.1641" fill="#4B4E75"/>
<rect x="221.382" y="122.156" width="11.8974" height="11.1641" fill="#4B4E75"/>
</g>
</g>
<defs>
<clipPath id="clip0_1296_1024">
<rect width="360" height="350" fill="white"/>
</clipPath>
</defs>
</svg>
