<svg width="564" height="733" viewBox="0 0 564 733" fill="none" xmlns="http://www.w3.org/2000/svg">
<rect x="74.5" y="411.5" width="371" height="123" fill="#4B4E75" stroke="black"/>
<rect x="520.5" y="400.5" width="332" height="15" rx="7.49999" transform="rotate(90 520.5 400.5)" fill="#8286B6" stroke="black"/>
<rect x="85.5" y="292.5" width="332" height="15" rx="7.49999" transform="rotate(90 85.5 292.5)" fill="#8286B6" stroke="black"/>
<rect x="461.5" y="292.5" width="332" height="15" rx="7.49999" transform="rotate(90 461.5 292.5)" fill="#8286B6" stroke="black"/>
<rect x="81.9587" y="437.779" width="59.2409" height="9" rx="4.5" transform="rotate(154.327 81.9587 437.779)" fill="#8286B6" stroke="black"/>
<rect x="0.667259" y="-0.23402" width="59.2409" height="9" rx="4.5" transform="matrix(0.901279 0.433239 0.433239 -0.901279 450.167 433.279)" fill="#8286B6" stroke="black"/>
<rect x="26.5" y="455.5" width="494" height="14" rx="7" fill="#8286B6" stroke="black"/>
<rect x="419.5" y="429.5" width="140" height="137" fill="#8286B6" stroke="black"/>
<rect x="36.5" y="400.5" width="332" height="15" rx="7.49999" transform="rotate(90 36.5 400.5)" fill="#8286B6" stroke="black"/>
<rect x="427.5" y="437.5" width="123" height="57" rx="1.5" fill="#BFC3E3" stroke="black"/>
<rect x="427.5" y="502.5" width="123" height="56" rx="1.5" fill="#BFC3E3" stroke="black"/>
<rect x="464.5" y="462.5" width="53" height="7" rx="3.5" fill="#4B4E75" stroke="black"/>
<rect x="464.5" y="526.5" width="53" height="7" rx="3.5" fill="#4B4E75" stroke="black"/>
<path d="M0.847813 388.5L57.2476 286.5H489.398L563.022 388.5H0.847813Z" fill="#A2A5C9" stroke="black"/>
<rect x="0.5" y="386.5" width="563" height="25" rx="1.5" fill="#8286B6" stroke="black"/>
<rect x="123" y="104" width="288" height="174" rx="2" fill="#121629"/>
<rect width="30" height="14" transform="matrix(1 0 0 -1 252 292)" fill="#121629"/>
<path d="M216.84 300.388C216.425 301.679 217.388 303 218.744 303H312.065C313.475 303 314.442 301.581 313.927 300.269L309.998 290.269C309.698 289.503 308.959 289 308.137 289H221.958C221.089 289 220.32 289.561 220.054 290.388L216.84 300.388Z" fill="#121629"/>
<rect x="127" y="108" width="280" height="166" rx="2" fill="#AEB2D5"/>
<path d="M249 120H402V267C402 268.105 401.105 269 400 269H251C249.895 269 249 268.105 249 267V120Z" fill="#232946"/>
<path d="M249 115C249 113.895 249.895 113 251 113H400C401.105 113 402 113.895 402 115V120H249V115Z" fill="#FAE5E8"/>
<path d="M133 120H245V267C245 268.105 244.105 269 243 269H135C133.895 269 133 268.105 133 267V120Z" fill="#F4F3EF"/>
<rect x="139" y="125" width="98" height="65" rx="10" fill="#CBDCDB"/>
<rect x="139" y="198" width="53" height="65" rx="4" fill="#EBE0C3"/>
<rect x="197" y="198" width="40" height="65" rx="4" fill="#EDDBDE"/>
<circle cx="252.5" cy="116.5" r="1.5" fill="#F87171"/>
<circle cx="257.5" cy="116.5" r="1.5" fill="#FACC15"/>
<circle cx="262.5" cy="116.5" r="1.5" fill="#4ADE80"/>
<path d="M133 115C133 113.895 133.895 113 135 113H243C244.105 113 245 113.895 245 115V120H133V115Z" fill="#FAE5E8"/>
<circle cx="136.5" cy="116.5" r="1.5" fill="#F87171"/>
<circle cx="141.5" cy="116.5" r="1.5" fill="#FACC15"/>
<circle cx="146.5" cy="116.5" r="1.5" fill="#4ADE80"/>
<path d="M241 120H245V267C245 268.105 244.105 269 243 269H241V120Z" fill="#D5BDBD"/>
<rect x="242" y="125" width="2" height="56" rx="1" fill="#FAE5E8"/>
<rect x="318" y="197.141" width="73.7031" height="48.8594" fill="#121629"/>
<path d="M318 195C318 193.895 318.895 193 320 193H389.703C390.808 193 391.703 193.895 391.703 195V197.141H318V195Z" fill="#FAE5E8"/>
<circle cx="320.898" cy="195.07" r="1.24219" fill="#F87171"/>
<circle cx="325.039" cy="195.07" r="1.24219" fill="#FACC15"/>
<circle cx="329.18" cy="195.07" r="1.24219" fill="#4ADE80"/>
<path d="M322.715 200.773V200.359C322.715 200.279 322.729 200.221 322.758 200.188C322.789 200.154 322.829 200.137 322.879 200.137C322.928 200.137 322.967 200.154 322.996 200.188C323.027 200.221 323.043 200.279 323.043 200.359V200.773C323.22 200.789 323.366 200.818 323.48 200.859C323.595 200.898 323.73 200.97 323.887 201.074C323.889 201.009 323.906 200.961 323.938 200.93C323.969 200.898 324.007 200.883 324.051 200.883C324.1 200.883 324.141 200.9 324.172 200.934C324.203 200.967 324.219 201.023 324.219 201.102V201.59C324.219 201.668 324.203 201.724 324.172 201.758C324.141 201.792 324.1 201.809 324.051 201.809C324.009 201.809 323.974 201.796 323.945 201.77C323.917 201.741 323.897 201.694 323.887 201.629C323.871 201.507 323.79 201.396 323.645 201.297C323.431 201.156 323.18 201.086 322.891 201.086C322.596 201.086 322.353 201.172 322.16 201.344C321.97 201.516 321.875 201.71 321.875 201.926C321.875 202.142 321.96 202.307 322.129 202.422C322.257 202.51 322.525 202.594 322.934 202.672C323.345 202.747 323.624 202.819 323.77 202.887C323.978 202.978 324.133 203.102 324.234 203.258C324.339 203.414 324.391 203.603 324.391 203.824C324.391 204.121 324.275 204.383 324.043 204.609C323.811 204.833 323.478 204.967 323.043 205.012V205.977C323.043 206.057 323.027 206.115 322.996 206.148C322.967 206.182 322.928 206.199 322.879 206.199C322.829 206.199 322.789 206.182 322.758 206.148C322.729 206.115 322.715 206.057 322.715 205.977V205.012C322.314 204.986 321.977 204.855 321.703 204.621C321.703 204.736 321.698 204.806 321.688 204.832C321.68 204.855 321.661 204.878 321.633 204.898C321.604 204.917 321.573 204.926 321.539 204.926C321.492 204.926 321.453 204.909 321.422 204.875C321.391 204.841 321.375 204.785 321.375 204.707V204.066C321.375 203.988 321.389 203.932 321.418 203.898C321.449 203.862 321.49 203.844 321.539 203.844C321.586 203.844 321.626 203.861 321.66 203.895C321.684 203.918 321.698 203.97 321.703 204.051C321.719 204.189 321.829 204.331 322.035 204.477C322.243 204.62 322.525 204.691 322.879 204.691C323.246 204.691 323.535 204.604 323.746 204.43C323.957 204.255 324.062 204.052 324.062 203.82C324.062 203.667 324.023 203.535 323.945 203.426C323.867 203.316 323.745 203.227 323.578 203.156C323.469 203.112 323.24 203.057 322.891 202.992C322.385 202.893 322.035 202.766 321.84 202.609C321.642 202.453 321.543 202.224 321.543 201.922C321.543 201.641 321.65 201.389 321.863 201.168C322.077 200.947 322.361 200.815 322.715 200.773Z" fill="#4ADE80"/>
<rect x="326" y="200" width="2" height="6" fill="#4ADE80"/>
<rect x="259" y="122" width="109" height="6" fill="#AEB2D5" fill-opacity="0.2"/>
<rect x="259" y="132" width="121" height="6" fill="#AEB2D5" fill-opacity="0.2"/>
<rect x="259" y="142" width="115" height="6" fill="#AEB2D5" fill-opacity="0.2"/>
<rect x="259" y="152" width="82" height="6" fill="#AEB2D5" fill-opacity="0.2"/>
<rect x="259" y="162" width="92" height="6" fill="#AEB2D5" fill-opacity="0.2"/>
<rect x="259" y="172" width="55" height="6" fill="#AEB2D5" fill-opacity="0.2"/>
<rect x="259" y="182" width="103" height="6" fill="#AEB2D5" fill-opacity="0.2"/>
<rect x="259" y="192" width="109" height="6" fill="#AEB2D5" fill-opacity="0.2"/>
<rect x="259" y="203" width="59" height="6" fill="#AEB2D5" fill-opacity="0.2"/>
<rect x="259" y="214" width="59" height="6" fill="#AEB2D5" fill-opacity="0.2"/>
<rect x="259" y="224" width="59" height="6" fill="#AEB2D5" fill-opacity="0.2"/>
<rect x="259" y="234" width="59" height="6" fill="#AEB2D5" fill-opacity="0.2"/>
<rect x="259" y="244" width="59" height="6" fill="#AEB2D5" fill-opacity="0.2"/>
<rect x="259" y="254" width="59" height="6" fill="#AEB2D5" fill-opacity="0.2"/>
<path d="M145.451 319.685C145.986 318.364 147.269 317.5 148.695 317.5H363.143C364.416 317.5 365.588 318.191 366.205 319.304L382.272 348.304C383.565 350.637 381.878 353.5 379.211 353.5H136.938C134.455 353.5 132.761 350.986 133.694 348.685L145.451 319.685Z" fill="#BFC3E3" stroke="black"/>
<path d="M380.97 322.773C379.6 320.439 381.282 317.5 383.988 317.5H446.569C447.705 317.5 448.77 318.051 449.426 318.978L467.124 343.978C468.765 346.296 467.107 349.5 464.267 349.5H398.671C397.43 349.5 396.282 348.843 395.654 347.773L380.97 322.773Z" fill="#8286B6" stroke="black"/>
<path d="M412.996 316.699C415.146 315.225 417.845 314.792 420.349 315.519L431.853 318.86C438.392 320.758 441.332 328.357 437.775 334.163C434.796 339.022 428.443 340.547 423.583 337.569L413.369 331.309C407.989 328.012 407.791 320.267 412.996 316.699Z" fill="#BFC3E3" stroke="black"/>
<rect x="302.5" y="0.5" width="45" height="42" fill="#E77373" stroke="black"/>
<rect x="217.5" y="42.5" width="45" height="42" fill="#E77373" stroke="black"/>
<rect x="330.5" y="15.5" width="45" height="42" fill="#607ECB" stroke="black"/>
<rect x="165.5" y="42.5" width="45" height="42" fill="#607ECB" stroke="black"/>
</svg>
