<svg width="230" height="805" viewBox="0 0 230 805" fill="none" xmlns="http://www.w3.org/2000/svg">
<path d="M205.43 751.512C205.43 766.043 195.808 779.278 180.081 788.907C164.362 798.531 142.614 804.5 118.566 804.5C94.5178 804.5 72.7703 798.531 57.0512 788.907C41.3236 779.278 31.7017 766.043 31.7017 751.512C31.7017 736.981 41.3236 723.745 57.0512 714.116C72.7703 704.492 94.5178 698.523 118.566 698.523C142.614 698.523 164.362 704.492 180.081 714.116C195.808 723.745 205.43 736.981 205.43 751.512Z" fill="#4B4E75" stroke="black"/>
<path d="M204.539 746.163C204.539 759.192 194.998 771.093 179.339 779.765C163.697 788.429 142.054 793.803 118.12 793.803C94.1867 793.803 72.5437 788.429 56.9018 779.765C41.2426 771.093 31.7017 759.192 31.7017 746.163C31.7017 733.134 41.2426 721.233 56.9018 712.561C72.5437 703.897 94.1867 698.523 118.12 698.523C142.054 698.523 163.697 703.897 179.339 712.561C194.998 721.233 204.539 733.134 204.539 746.163Z" fill="#B0A9C5" stroke="black"/>
<path d="M106.585 120.849H128.764V733.682C128.764 739.806 123.799 744.771 117.675 744.771C111.55 744.771 106.585 739.806 106.585 733.682V120.849Z" fill="#4B4E75" stroke="black"/>
<path d="M55.4253 8.10696C55.5957 7.60449 56.0313 7.22406 56.5562 7.11819C102.422 -2.13135 130.394 -1.27849 181.389 7.14375C181.961 7.23835 182.437 7.65652 182.596 8.20734L229.048 168.499C229.25 169.198 228.903 169.959 228.236 170.275C187.976 189.371 155.148 197.895 120.547 197.385C85.9333 196.875 49.5037 187.324 2.03478 170.193C1.26036 169.914 0.842827 169.06 1.1024 168.295L55.4253 8.10696Z" fill="#E77373" stroke="black"/>
</svg>
